<svg width="25" height="27" viewBox="0 0 25 27" fill="none" xmlns="http://www.w3.org/2000/svg">
<path d="M5.88883 5.24634C6.35559 5.24634 6.73428 4.85534 6.73428 4.37292V1.57699C6.73428 1.09462 6.35559 0.703613 5.88883 0.703613C5.42213 0.703613 5.04343 1.09462 5.04343 1.57704V4.37297C5.04343 4.85534 5.42213 5.24634 5.88883 5.24634Z" fill="white"/>
<path d="M12.6507 5.24634C13.1174 5.24634 13.4961 4.85534 13.4961 4.37292V1.57699C13.4961 1.09462 13.1174 0.703613 12.6507 0.703613C12.184 0.703613 11.8053 1.09462 11.8053 1.57704V4.37297C11.8053 4.85534 12.184 5.24634 12.6507 5.24634Z" fill="white"/>
<path d="M19.4126 5.24634C19.8793 5.24634 20.258 4.85534 20.258 4.37292V1.57699C20.258 1.09462 19.8793 0.703613 19.4126 0.703613C18.9458 0.703613 18.5671 1.09462 18.5671 1.57704V4.37297C18.5671 4.85534 18.9458 5.24634 19.4126 5.24634Z" fill="white"/>
<path d="M21.0677 2.98772H20.9342V4.37292C20.9342 5.23967 20.2519 5.94517 19.4126 5.94517C18.574 5.94517 17.891 5.23962 17.891 4.37292V2.98772H14.1723V4.37292C14.1723 5.23967 13.4893 5.94517 12.6507 5.94517C11.8121 5.94517 11.1291 5.23962 11.1291 4.37292V2.98772H7.41047V4.37292C7.41047 5.23967 6.72744 5.94517 5.88888 5.94517C5.05032 5.94517 4.36725 5.23967 4.36725 4.37292V2.98772H4.23446C2.40928 2.98772 0.930176 4.51683 0.930176 6.40292V23.3349C0.930176 25.221 2.40923 26.7501 4.23446 26.7501H21.0677C22.8921 26.7501 24.372 25.221 24.372 23.3349V6.40292C24.372 4.51688 22.8921 2.98772 21.0677 2.98772ZM22.2418 23.0757C22.2418 23.8883 21.602 24.5491 20.8165 24.5491H4.48567C3.69943 24.5491 3.05967 23.8883 3.05967 23.0757V10.3938H22.2418L22.2418 23.0757Z" fill="white"/>
</svg>
