<svg width="26" height="26" viewBox="0 0 26 26" fill="none" xmlns="http://www.w3.org/2000/svg">
<path d="M18.2093 12.7268C18.2093 15.6038 15.877 17.9361 13 17.9361C10.123 17.9361 7.79068 15.6038 7.79068 12.7268C7.79068 9.84977 10.123 7.51749 13 7.51749C15.877 7.51749 18.2093 9.84977 18.2093 12.7268ZM18.2093 12.7268V14.6803C18.2093 16.4784 19.667 17.9361 21.4651 17.9361C23.2632 17.9361 24.7209 16.4784 24.7209 14.6803V12.7268C24.7209 6.2535 19.4733 1.00586 13 1.00586C6.5267 1.00586 1.27905 6.2535 1.27905 12.7268C1.27905 19.2001 6.5267 24.4477 13 24.4477H18.2093" stroke="white" stroke-width="2" stroke-linecap="round" stroke-linejoin="round"/>
</svg>
