<svg width="56" height="56" viewBox="0 0 56 56" fill="none" xmlns="http://www.w3.org/2000/svg">
<path d="M26.3487 1.18084C27.3837 0.336856 28.8696 0.336856 29.9045 1.18084L32.1361 3.00061C32.8385 3.57319 33.7735 3.77255 34.6481 3.53615L37.4206 2.78692C38.7082 2.43898 40.0629 3.0428 40.6649 4.23273L41.9749 6.82298C42.3828 7.62905 43.1528 8.19027 44.0451 8.3316L46.8944 8.78293C48.2072 8.99089 49.1954 10.0894 49.2635 11.4167L49.4134 14.3389C49.4596 15.2374 49.933 16.0597 50.6869 16.551L53.1247 18.1397C54.2347 18.8633 54.6893 20.2635 54.2156 21.5011L53.1669 24.2414C52.8459 25.0797 52.9447 26.0208 53.4322 26.7744L55.0243 29.2344C55.7436 30.3461 55.59 31.809 54.6553 32.7472L52.5933 34.817C51.9592 35.4534 51.6673 36.3543 51.8079 37.2417L52.2667 40.1383C52.474 41.4487 51.7373 42.7258 50.499 43.2029L47.7957 44.2435C46.9543 44.5675 46.3191 45.2749 46.0876 46.1462L45.3391 48.9638C44.9973 50.2508 43.7998 51.1216 42.47 51.0504L39.5982 50.8969C38.6944 50.8485 37.8226 51.2377 37.2555 51.9428L35.4445 54.1951C34.6079 55.2355 33.1552 55.5446 31.9673 54.9348L29.4114 53.6228C28.6049 53.209 27.6484 53.209 26.842 53.6228L24.2859 54.9348C23.0982 55.5446 21.6454 55.2355 20.8089 54.1951L18.9978 51.9428C18.4307 51.2377 17.5589 50.8485 16.6552 50.8969L13.7833 51.0504C12.4535 51.1216 11.2561 50.2508 10.9142 48.9638L10.1656 46.1462C9.93416 45.2749 9.29906 44.5675 8.45768 44.2435L5.75433 43.2029C4.51589 42.7258 3.77918 41.4487 3.98673 40.1383L4.44545 37.2417C4.58596 36.3543 4.29408 35.4534 3.65999 34.817L1.59795 32.7472C0.663303 31.809 0.509701 30.3461 1.2291 29.2344L2.82101 26.7744C3.3087 26.0208 3.4073 25.0797 3.08644 24.2414L2.03761 21.5011C1.56393 20.2635 2.01846 18.8633 3.12872 18.1397L5.5665 16.551C6.32034 16.0597 6.7936 15.2374 6.83971 14.3389L6.9897 11.4167C7.05783 10.0894 8.04594 8.99089 9.35886 8.78293L12.2082 8.3316C13.1005 8.19027 13.8706 7.62905 14.2783 6.82298L15.5885 4.23273C16.1903 3.0428 17.5452 2.43898 18.8327 2.78692L21.6052 3.53615C22.4799 3.77255 23.4149 3.57319 24.1171 3.00061L26.3487 1.18084Z" fill="#990A0A"/>
</svg>
