<svg xmlns="http://www.w3.org/2000/svg" version="1.1" xmlns:xlink="http://www.w3.org/1999/xlink" xmlns:svgjs="http://svgjs.com/svgjs" width="214" height="214"><svg width="214" height="214" viewBox="0 0 139 214" fill="none" xmlns="http://www.w3.org/2000/svg">
<path d="M47.6155 213.938C47.1696 213.938 46.7238 213.938 46.2562 213.901C46.0824 213.71 45.9368 213.55 45.7772 213.405C45.2819 212.956 44.8554 212.499 44.9767 211.731C45.1416 210.688 45.5297 209.732 46.3201 209.059C47.6936 207.889 49.147 206.812 50.5791 205.713C50.8981 205.468 51.17 205.245 51.0613 204.787C50.6819 203.187 51.0846 201.625 51.3837 200.08C51.5799 199.068 52.0228 198.099 52.3906 197.124C52.7594 196.146 53.1068 195.151 53.5819 194.225C54.2168 192.986 54.9567 191.801 55.6691 190.603C56.0418 189.977 56.4223 189.351 56.8518 188.763C57.615 187.718 58.4033 186.691 59.2091 185.678C59.9894 184.698 60.7693 183.713 61.6131 182.788C62.9272 181.348 64.2702 179.932 65.649 178.553C66.575 177.628 67.5499 176.743 68.5653 175.916C69.6671 175.02 70.8171 174.177 71.9911 173.377C72.9835 172.7 74.0401 172.118 75.1139 171.486C75.5454 171.197 75.9313 170.915 76.3545 170.619C76.4233 170.564 76.4548 170.522 76.4863 170.48C76.4054 170.501 76.3245 170.522 76.1949 170.548C75.788 170.757 75.4297 170.961 75.0199 171.17C74.8327 171.2 74.697 171.223 74.5113 171.237C74.1292 171.398 73.7971 171.567 73.465 171.743C73.4649 171.748 73.4542 171.746 73.4165 171.743C73.316 171.812 73.2531 171.882 73.1494 171.962C73.0528 171.971 72.997 171.971 72.9158 171.943C72.7675 171.974 72.6446 172.033 72.5002 172.138C71.5963 172.549 70.7191 172.927 69.8305 173.276C68.2789 173.886 66.817 174.633 65.5504 175.749C65.1563 176.096 64.7659 176.852 63.9837 176.092C64.1962 175.863 64.3726 175.555 64.6385 175.407C66.2657 174.503 67.9023 173.614 69.5588 172.764C70.3065 172.381 71.107 172.101 71.9128 171.787C72.0407 171.757 72.1394 171.714 72.2861 171.676C72.536 171.588 72.7379 171.494 72.9754 171.405C73.0826 171.352 73.1541 171.293 73.2728 171.222C73.6384 171.084 73.9568 170.959 74.326 170.828C74.8942 170.574 75.4115 170.327 75.9288 170.079C75.92 170.053 75.9112 170.028 75.9024 170.002C75.164 170.226 74.4256 170.45 73.6398 170.675C73.1985 170.824 72.8044 170.974 72.3852 171.111C72.277 171.137 72.1939 171.174 72.0565 171.2C71.3007 171.361 70.6017 171.543 69.8973 171.701C68.8459 171.936 67.7794 172.112 66.7399 172.39C65.2235 172.796 63.7244 173.267 62.2199 173.717C61.6333 173.892 61.052 174.085 60.4684 174.27C59.7152 174.51 58.9517 174.721 58.2121 174.997C57.53 175.251 56.879 175.588 56.2047 175.865C55.0405 176.343 53.8175 176.706 52.713 177.295C51.2234 178.088 49.7885 178.998 48.3946 179.952C47.2857 180.711 46.2181 181.551 45.235 182.466C44.3804 183.261 43.722 184.265 42.877 185.073C42.3317 185.594 42.0254 186.153 41.9197 186.869C41.8983 187.014 41.8097 187.148 41.7589 187.29C41.5917 187.755 41.287 187.989 40.6144 187.893C40.6793 187.414 40.5882 186.852 40.8259 186.542C41.9773 185.039 43.1266 183.514 44.453 182.171C45.5924 181.017 46.9292 180.041 48.2558 179.095C49.1728 178.441 50.2101 177.95 51.213 177.423C52.534 176.728 53.8354 175.974 55.2157 175.421C56.8549 174.764 58.5609 174.267 60.2528 173.75C62.2798 173.13 64.3236 172.565 66.3577 171.968C66.9895 171.782 67.6137 171.571 68.2413 171.371C68.0912 171.222 67.9659 171.178 67.8511 171.197C66.7035 171.389 65.5629 171.635 64.4095 171.777C63.3542 171.907 62.2862 171.943 61.2224 171.991C60.5434 172.021 59.86 171.965 59.1821 172.005C58.3204 172.057 57.4625 172.234 56.6026 172.237C55.1077 172.243 53.6127 172.134 52.1172 172.114C50.9352 172.099 49.7524 172.16 48.5701 172.159C46.8168 172.157 45.0635 172.129 43.3103 172.112C43.244 172.111 43.1778 172.107 43.1116 172.108C41.92 172.12 40.7277 172.115 39.5372 172.159C39.2297 172.17 38.8644 172.257 38.6362 172.443C38.1545 172.838 37.8629 172.601 37.5316 172.284C38.1077 171.464 38.7769 171.074 39.6101 171.115C42.0648 171.237 44.5192 171.068 46.9834 171.374C48.7564 171.595 50.5872 171.313 52.3913 171.333C53.8796 171.35 55.3663 171.539 56.8541 171.545C58.5048 171.553 60.1619 171.506 61.8056 171.362C64.0966 171.162 66.3893 170.923 68.6594 170.562C70.4416 170.28 72.1918 169.793 73.9533 169.384C74.1665 169.335 74.3616 169.207 74.5606 169.111C74.5561 169.106 74.5498 169.117 74.6054 169.123C75.4976 168.947 76.3343 168.766 77.171 168.584C77.1637 168.555 77.1565 168.525 77.1492 168.496C76.639 168.526 76.1287 168.557 75.5769 168.562C75.5006 168.48 75.465 168.376 75.4313 168.377C74.8253 168.388 74.2195 168.412 73.557 168.435C73.2491 168.48 72.9984 168.528 72.7463 168.566C72.137 168.658 71.527 168.746 70.8675 168.83C70.5924 168.846 70.3665 168.864 70.1417 168.891C69.5742 168.959 69.0073 169.032 68.3786 169.109C67.6192 169.161 66.9188 169.269 66.2237 169.241C63.7756 169.144 61.3283 169.015 58.8826 168.867C57.9694 168.812 57.0559 168.705 56.1523 168.561C54.6896 168.327 53.2317 168.06 51.778 167.775C50.4906 167.523 49.1934 167.292 47.9341 166.933C46.6845 166.578 45.4731 166.085 44.2516 165.634C42.3135 164.918 40.3777 164.196 38.4481 163.458C37.8795 163.24 37.3368 162.955 36.7794 162.708C35.7872 162.267 34.779 161.859 33.8029 161.385C32.6239 160.813 31.4752 160.178 30.3061 159.585C29.4459 159.148 28.5272 158.809 27.7167 158.296C25.8764 157.132 24.0646 155.919 22.2836 154.666C20.9223 153.709 19.5832 152.709 18.3118 151.636C16.7754 150.34 15.343 148.921 13.8239 147.603C12.6148 146.554 11.2866 145.611 9.71173 145.267C8.92234 145.094 8.98893 144.785 9.11682 144.094C9.92668 144.387 10.6754 144.659 11.424 144.93C11.4717 144.845 11.5194 144.759 11.5671 144.674C10.9118 144.183 10.2801 143.655 9.59561 143.209C8.52641 142.512 7.55679 141.599 6.14933 141.571C5.96881 141.568 5.73139 141.226 5.64592 140.994C5.60396 140.881 5.84629 140.517 5.96607 140.514C6.43139 140.503 6.92001 140.523 7.36077 140.658C7.91851 140.83 8.43807 141.126 8.97409 141.368C9.00707 141.318 9.04006 141.267 9.07305 141.217C8.95601 141.013 8.84051 140.808 8.72168 140.605C7.97851 139.335 7.16631 138.099 6.50812 136.787C5.67436 135.124 4.88774 133.428 4.22377 131.692C3.48818 129.769 2.91094 127.785 2.27192 125.825C2.13217 125.396 2.00825 124.961 1.90225 124.523C1.62346 123.371 1.33633 122.219 1.09443 121.059C0.857275 119.921 0.675074 118.772 0.461132 117.63C0.410905 117.361 0.34352 117.094 0.253383 116.837C0.231694 116.775 0.0877315 116.756 0 116.718C2.65267e-07 112.426 2.75671e-07 108.135 0.0517843 103.775C0.133461 103.142 0.163694 102.577 0.185247 102.012C0.185376 102.009 0.0644154 102.001 0 101.995C2.65267e-07 101.593 2.64496e-07 101.191 0.0318795 100.785C0.162772 100.64 0.261784 100.499 0.359806 100.302C0.555451 98.6488 0.693684 97.0415 0.965717 95.4572C1.22015 93.9754 1.53327 92.4927 1.96979 91.0557C2.62789 88.8892 3.38989 86.7529 4.15843 84.6221C4.60668 83.3793 5.17825 82.1814 5.64928 80.9462C6.10894 79.7407 6.51843 78.5159 6.93564 77.2946C7.1313 76.7219 7.26594 76.1275 7.47709 75.5612C7.79159 74.7176 8.17289 73.8989 8.48285 73.0538C8.8848 71.958 9.15934 70.8076 9.64317 69.7515C10.3137 68.2878 10.8521 66.8094 10.991 65.1962C11.0267 64.7819 11.2256 64.4852 11.813 64.6376C11.7746 65.0453 11.7971 65.4715 11.6837 65.8579C11.5001 66.4838 11.2232 67.082 10.993 67.6946C10.329 69.4615 9.66285 71.2277 9.01089 72.999C8.8491 73.4385 8.73773 73.8966 8.60318 74.3462C8.6671 74.3696 8.73102 74.3931 8.79495 74.4165C9.05094 73.7615 9.31138 73.1083 9.56042 72.4507C9.64303 72.2326 9.66687 71.9889 9.7687 71.782C10.0441 71.2226 10.3591 70.6826 10.6365 70.1241C11.2078 68.9737 11.7695 67.8185 12.3267 66.6612C13.0058 65.2509 13.6945 63.8448 14.3458 62.4217C15.1365 60.694 15.8834 58.9463 16.667 57.2153C17.1479 56.1528 17.7701 55.1413 18.1353 54.0426C18.6442 52.5116 18.9601 50.9171 19.3876 49.3577C19.471 49.0536 19.6867 48.7858 19.8414 48.5012C19.9195 48.5091 19.9976 48.5171 20.0758 48.525C20.195 48.9472 20.4722 49.3973 20.4037 49.7864C20.2045 50.9177 19.9605 52.0597 19.5581 53.1314C19.126 54.2821 18.4788 55.3506 17.9545 56.4686C17.5621 57.3052 17.233 58.1715 16.8445 59.0102C16.3425 60.0942 15.8001 61.1594 15.2938 62.2414C15.0689 62.722 14.9199 63.2389 14.6843 63.7135C14.0421 65.0074 13.3656 66.2842 12.7162 67.5747C12.435 68.1334 12.2112 68.7217 11.9192 69.2743C11.3276 70.3941 10.6634 71.4776 10.1156 72.6177C9.79623 73.2824 9.649 74.0293 9.41442 74.7359C9.33733 74.9681 9.22919 75.19 9.13524 75.4167C9.53359 75.0736 9.82769 74.6887 10.0763 74.2764C10.5771 73.4458 11.0252 72.5822 11.5487 71.7666C11.9426 71.1528 12.4452 70.6096 12.855 70.0049C13.7672 68.6589 14.6273 67.2774 15.5556 65.9429C16.1941 65.025 16.9123 64.1626 17.5932 63.2741C18.3909 62.2333 19.1844 61.1893 19.9843 60.1502C20.6765 59.2509 21.3341 58.3207 22.0795 57.4676C23.5312 55.8064 25.0551 54.2082 26.5077 52.5478C27.5007 51.4127 28.4213 50.2145 29.3787 49.0482C30.2172 48.0266 31.087 47.0297 31.8964 45.9858C32.6705 44.9874 33.3817 43.9403 34.1269 42.9193C34.3851 42.5656 34.7041 42.2503 34.9231 41.8753C35.5575 40.7896 36.2018 39.7053 36.7556 38.578C37.4552 37.1538 38.164 35.7208 38.686 34.2277C39.0146 33.2877 39.0083 32.2307 39.1507 31.2369C39.7636 31.2035 40.2416 31.5662 40.1695 32.0698C40.0642 32.8043 39.9489 33.5629 39.6694 34.2418C39.0333 35.7867 38.3618 37.3252 37.5791 38.7996C36.7531 40.3555 35.8105 41.8527 34.8607 43.3384C34.3801 44.0903 33.7794 44.7668 33.219 45.4661C31.8093 47.2252 30.4222 49.0037 28.9674 50.725C27.839 52.06 26.6148 53.3138 25.4466 54.6156C24.1097 56.1054 22.7789 57.6008 21.4628 59.1089C20.8256 59.839 20.2214 60.5986 19.6217 61.3601C19.554 61.446 19.6126 61.6313 19.6126 61.7706C19.6697 61.8143 19.7268 61.858 19.784 61.9017C20.1071 61.531 20.4195 61.1503 20.7554 60.7915C21.6658 59.8187 22.5346 58.7988 23.5142 57.9005C25.1935 56.3608 26.9499 54.9056 28.6637 53.4033C29.9979 52.2338 31.3119 51.0413 32.6436 49.8689C34.0101 48.6659 35.4362 47.5258 36.748 46.2663C38.5845 44.5029 40.3464 42.6613 42.1268 40.8402C43.3268 39.6128 44.5251 38.3824 45.6851 37.1176C46.8398 35.8584 47.9747 34.5785 49.0632 33.2622C49.8363 32.3271 50.6264 31.3771 51.2151 30.3253C52.0981 28.7478 52.8236 27.0811 53.5928 25.4414C54.3057 23.9218 54.5925 22.3174 54.2185 20.6702C53.7777 18.7284 53.2418 16.8145 52.0058 15.1767C51.5145 14.5257 51.6429 14.1363 52.3859 13.714C52.8446 13.4532 53.5103 13.3684 53.7681 12.99C54.09 12.5173 54.5229 12.4457 54.9339 12.259C55.6595 11.9294 56.4246 11.6834 57.1386 11.332C58.1285 10.8447 59.0949 10.3071 60.0554 9.76291C60.7712 9.35739 61.4636 8.91045 62.1628 8.47603C62.7022 8.14089 63.2364 7.79742 63.7719 7.45609C64.5664 6.94967 65.4219 6.51429 66.1315 5.90823C66.5766 5.52803 67.0027 4.91771 67.078 4.36197C67.1857 3.56704 67.4441 2.6245 66.525 1.9827C67.0648 1.60252 67.5702 1.30027 68.0072 0.919533C68.2911 0.672209 68.4753 0.310474 68.7042 4.38201e-10C69.0186 -1.32195e-07 69.333 -1.22935e-07 69.7099 0.0483459C69.9384 0.316146 70.2118 0.517831 70.2515 0.758151C70.4183 1.76663 70.3292 2.76679 69.5996 3.55137C68.7723 4.44089 68.0807 5.47359 66.9485 6.06014C66.5228 6.2807 66.155 6.63693 65.809 6.97985C65.5463 7.24009 65.3524 7.55982 65.674 7.95168C65.9174 8.24825 66.1886 8.56 66.3096 8.91231C66.7417 10.1705 67.1845 11.4325 67.491 12.7244C67.7946 14.0041 67.9199 15.3252 68.1568 16.6221C68.5057 18.5321 67.793 20.3432 67.3621 22.0949C66.9502 23.7696 65.7474 25.2719 64.7852 26.7818C64.0925 27.8687 63.2572 28.8714 62.4253 29.8611C61.4783 30.9879 60.5318 32.1301 59.4629 33.1356C58.0461 34.4683 56.5127 35.6772 55.0255 36.9347C54.5871 37.3053 54.1494 37.6794 53.6865 38.0179C53.1024 38.4449 52.4821 38.8222 51.898 39.2492C51.4936 39.5449 51.1315 39.8979 50.7373 40.2085C49.9091 40.8611 49.0742 41.5051 48.2383 42.1477C47.672 42.5831 47.0956 43.0053 46.5303 43.442C45.9466 43.8929 45.3709 44.3543 44.7952 44.8187C44.7988 44.8262 44.8131 44.8178 44.768 44.8131C44.6223 44.8971 44.5217 44.9859 44.4201 45.0776C44.4191 45.0806 44.4129 45.0813 44.371 45.055C44.2165 45.0903 44.1039 45.1519 43.9448 45.21C43.6774 45.3981 43.4563 45.5898 43.1884 45.7875C42.5465 46.1801 41.9513 46.5667 41.3089 46.9519C40.9446 47.1603 40.6275 47.3703 40.3104 47.5802C40.3431 47.6416 40.3759 47.703 40.4086 47.7644C40.985 47.6144 41.5781 47.5093 42.1332 47.3022C42.7467 47.0733 43.3253 46.7509 43.9614 46.4468C44.6972 46.1454 45.3834 45.8465 46.0857 45.5917C47.5651 45.0549 49.0201 44.3992 50.5441 44.0477C53.6441 43.3328 56.7876 42.8087 59.9044 42.1632C61.5717 41.8179 63.2407 41.5829 64.9464 41.6408C65.1578 41.648 65.371 41.574 65.5847 41.5486C66.4469 41.4463 67.3082 41.3321 68.1727 41.2551C68.6358 41.2139 69.1053 41.2504 69.5711 41.2324C70.2699 41.2055 70.9735 41.0881 71.6655 41.139C73.4653 41.2713 75.2604 41.4686 77.0562 41.6524C77.6565 41.7138 78.2558 41.7962 78.8506 41.898C80.357 42.1559 81.8623 42.421 83.3647 42.7009C84.5793 42.9271 85.8017 43.1298 86.9968 43.4359C87.9066 43.6689 88.7809 44.0425 89.6676 44.363C90.9409 44.8232 92.2275 45.2524 93.4765 45.7715C94.2463 46.0914 94.957 46.5535 95.6938 46.9525C96.5443 47.413 97.3944 47.8742 98.2524 48.3393C98.5943 48.109 99.0349 47.9194 99.3262 47.5955C100.169 46.658 100.94 45.6559 101.763 44.6997C102.392 43.9697 103.041 43.256 103.709 42.5619C104.787 41.4413 105.818 40.2596 106.999 39.2572C108.315 38.1411 109.758 37.1716 111.181 36.1884C111.876 35.7081 112.605 35.179 113.398 34.9667C114.304 34.7242 115.15 34.2663 116.166 34.3019C117.215 34.3386 118.277 33.9621 119.329 33.985C120.549 34.0115 121.762 34.2891 122.982 34.4299C123.404 34.4785 123.961 34.6158 124.238 34.4136C124.984 33.8709 125.604 33.1585 126.288 32.529C126.869 31.9944 127.468 31.4375 128.346 31.6088C128.645 31.6672 129.035 31.8429 129.156 32.081C129.313 32.3869 129.502 32.7763 128.968 33.1391C128.442 33.4965 128.105 34.1248 127.657 34.6072C127.352 34.9346 127.068 35.2283 126.503 34.9006C126.045 34.6351 125.443 34.6213 124.997 35.0619C124.558 35.4955 124.126 35.9421 123.738 36.4213C122.754 37.6382 121.799 38.878 120.829 40.1061C119.1 42.2943 117.382 44.4913 115.629 46.6595C115.217 47.169 114.681 47.5781 114.244 47.9934C113.749 47.6129 113.339 47.2379 112.874 46.9525C111.842 46.32 110.667 46.0253 109.493 46.0113C107.083 45.9824 104.706 46.1965 102.576 47.5533C101.77 48.0663 100.741 48.2684 100.016 48.8595C98.6566 49.9675 97.3856 51.2012 96.1866 52.4842C94.9713 53.7845 93.8742 55.1969 92.7511 56.5812C92.0775 57.4114 91.4492 58.2786 90.8087 59.1354C90.4883 59.564 90.2172 60.0331 89.8694 60.4371C89.1244 61.3027 88.3619 62.1552 87.5684 62.9763C87.2884 63.2661 86.8974 63.4485 86.5571 63.68C86.5213 63.6432 86.4855 63.6065 86.4497 63.5698C86.5055 63.3729 86.5613 63.1761 86.6147 62.988C82.2307 59.232 77.0963 56.9912 71.5331 55.3292C71.6112 55.5528 71.6714 55.6482 71.6739 55.7452C71.6888 56.3194 71.7365 56.8999 71.6639 57.4643C71.6456 57.6064 71.1947 57.8274 71.002 57.7784C70.7615 57.7173 70.5565 57.5089 70.7701 57.0834C70.9122 56.8005 70.7849 56.2369 70.5741 55.9476C69.7175 54.7721 68.2973 54.935 67.1977 55.062C65.4961 55.2584 63.7488 55.5712 62.1667 56.3823C61.3393 56.8064 60.4622 57.1351 59.6431 57.5735C59.406 57.7004 59.1638 58.0493 59.1457 58.3118C59.0834 59.2114 59.1024 60.1182 59.1236 61.0215C59.1417 61.7899 59.2395 62.5572 59.2432 63.3253C59.2586 66.4739 59.2516 69.6226 59.2526 72.7712C59.2529 73.8459 59.2526 74.9205 59.2526 76.0857C59.5607 75.9496 59.7616 75.8689 59.9556 75.7739C61.2554 75.1376 62.6367 74.6217 63.827 73.8218C64.8269 73.1499 65.6269 72.1678 66.4664 71.2769C66.7504 70.9756 66.9871 70.5514 67.0588 70.15C67.133 69.7341 67.0033 69.2735 66.9196 68.8408C66.8668 68.5678 66.5874 68.2318 66.6758 68.0657C66.7847 67.8612 67.1596 67.7514 67.4387 67.694C68.028 67.5729 68.6309 67.5195 69.2262 67.4255C70.2166 67.269 70.6867 67.6229 70.8083 68.6186C70.8234 68.7423 70.8687 68.8738 70.9366 68.978C71.6918 70.1369 72.9102 70.7107 74.0995 71.1868C75.7034 71.8288 77.4061 71.4045 79.0502 71.1681C79.972 71.0355 80.884 70.7472 81.7633 70.4272C83.0608 69.9551 84.343 69.4304 85.597 68.8529C86.2892 68.5342 86.9476 68.1105 87.5562 67.6486C88.6447 66.8224 89.8092 66.068 90.5388 64.8488C90.8238 64.3724 91.1627 63.9282 91.4771 63.4693C91.5564 63.5207 91.6356 63.5722 91.7149 63.6236C90.7788 65.9964 89.3699 68.0995 87.7868 70.1893C88.4876 70.3052 89.1351 70.3034 89.7825 70.3056C90.7536 70.3089 91.7249 70.3295 92.6957 70.3146C93.2853 70.3056 93.8825 70.2938 94.4617 70.1963C96.2749 69.891 97.9479 69.2044 99.4773 68.1879C99.9818 67.8526 100.453 67.4615 100.908 67.0599C101.202 66.8001 101.439 66.4749 101.701 66.179C101.774 66.2207 101.846 66.2625 101.919 66.3042C101.941 66.464 102.032 66.6544 101.975 66.7787C101.324 68.2209 99.8221 68.744 98.659 69.7985C99.7756 69.6446 100.803 69.5392 101.816 69.3555C103.796 68.9966 105.77 68.6018 107.743 68.2068C109.408 67.8735 111.07 67.5246 112.731 67.1712C113.493 67.009 114.241 66.7647 115.009 66.6519C117.677 66.2603 120.192 65.4581 122.325 63.7707C123.116 63.1444 123.736 62.3053 123.648 61.1401C123.626 60.8521 123.827 60.4195 124.063 60.267C124.539 59.9594 125.111 59.8009 125.642 59.5766C126.426 59.245 127.205 58.898 127.997 58.586C128.151 58.5254 128.423 58.5281 128.519 58.6238C128.617 58.721 128.606 58.9779 128.569 59.1493C128.487 59.538 128.344 59.9134 128.253 60.3008C128.069 61.0892 128.069 61.9745 127.692 62.6519C127.084 63.7444 126.703 65.0254 125.547 65.72C126.892 65.9899 128.196 66.2031 129.474 66.5194C131.326 66.9778 133.18 67.4503 134.995 68.0348C136.044 68.3725 137.016 68.9477 138.028 69.4035C138.342 69.5452 138.675 69.6458 139 69.7653C139 69.9495 139 70.1337 138.951 70.3721C137.829 70.0247 136.752 69.6323 135.684 69.2172C135.227 69.0394 134.803 68.7619 134.336 68.6223C133.508 68.3743 132.665 68.1563 131.815 67.9991C130.381 67.7343 128.945 67.4478 127.496 67.3189C126.218 67.2051 124.919 67.245 123.634 67.3118C122.837 67.3532 122.04 67.5352 121.259 67.7189C120.14 67.9816 119.038 68.3141 117.925 68.5974C116.568 68.9425 115.207 69.2674 113.848 69.6011C114.904 69.8508 115.927 69.9442 116.949 70.0458C117.097 70.0605 117.245 70.1042 117.387 70.1513C117.771 70.2782 118.033 70.5527 117.852 70.9395C117.654 71.3641 117.261 71.1233 116.941 71.0425C116.322 70.8861 115.691 70.5518 115.089 70.5994C113.141 70.7532 111.202 71.0311 109.264 71.2917C107.857 71.4809 106.444 71.6609 105.055 71.9502C103.602 72.253 102.176 72.6846 100.736 73.0542C99.4759 73.3777 98.2173 73.7087 96.9515 74.0089C94.5487 74.5787 92.1412 75.1289 89.8806 75.6536C90.3334 75.7545 90.9332 75.8459 91.4979 76.0397C91.67 76.0988 91.7452 76.44 91.8649 76.6521C91.5825 76.7829 91.1259 77.094 91.0454 77.0161C90.4178 76.4091 89.6096 76.6581 88.9165 76.5652C87.9572 76.4367 86.9543 76.5767 85.9759 76.6657C85.2721 76.7296 84.5723 76.873 83.8806 77.0259C82.9531 77.231 82.0399 77.5009 81.1121 77.7042C79.8108 77.9893 78.5005 78.2335 77.1966 78.5075C76.9068 78.5684 76.627 78.678 76.3441 78.7697C75.9846 78.8862 75.6265 79.0075 75.2679 79.1267C75.2878 79.2273 75.3077 79.3279 75.3277 79.4285C76.3859 79.4285 77.4442 79.4151 78.5021 79.4336C79.1223 79.4445 79.7507 79.4532 80.3595 79.5565C81.4228 79.7369 82.4714 80.0025 83.5308 80.2083C84.7011 80.4358 85.8868 80.5931 87.0466 80.863C87.8876 81.0586 88.6958 81.3929 89.5216 81.6562C90.3829 81.9307 91.2532 82.178 92.1078 82.4715C92.3905 82.5686 92.6255 82.7966 92.9016 82.9227C94.294 83.5587 95.7386 84.0969 97.0778 84.8287C98.7837 85.7608 100.448 86.7853 102.05 87.8866C103.066 88.5853 103.975 89.4568 104.862 90.3224C105.882 91.3171 106.893 92.3361 107.783 93.4439C108.911 94.8461 109.939 96.3315 110.962 97.8142C111.549 98.666 112.063 99.5715 112.57 100.475C113.016 101.269 113.411 102.092 113.819 102.906C114.29 103.846 114.832 104.761 115.195 105.742C115.7 107.109 116.127 108.513 116.478 109.928C116.878 111.537 117.379 113.127 117.508 114.8C117.588 115.834 117.871 116.859 117.881 117.891C117.905 120.554 117.832 123.219 117.785 125.883C117.779 126.232 117.699 126.58 117.645 126.926C117.547 127.548 117.437 128.167 117.344 128.789C117.311 129.006 117.35 129.237 117.297 129.446C117 130.618 116.714 131.794 116.371 132.953C115.92 134.478 115.471 136.008 114.924 137.5C114.355 139.051 113.675 140.561 113.034 142.086C112.318 143.788 111.657 145.517 110.848 147.174C110.234 148.432 109.419 149.591 108.705 150.8C107.87 152.215 107.014 153.618 106.229 155.06C105.625 156.171 105.086 157.321 104.572 158.477C103.965 159.841 103.36 161.21 102.862 162.614C102.467 163.726 102.188 164.885 101.941 166.041C101.706 167.142 101.619 168.274 101.394 169.378C101.085 170.888 101.225 172.409 101.54 173.854C101.819 175.136 102.465 176.364 103.098 177.535C103.532 178.339 104.16 179.063 105.066 179.456C105.182 179.507 105.283 179.814 105.238 179.952C105.185 180.116 104.983 180.31 104.815 180.346C103.975 180.525 103.533 179.874 103.11 179.362C102.356 178.452 101.698 177.471 101.435 176.272C101.19 175.155 100.877 174.053 100.621 172.898C100.649 171.906 100.649 170.959 100.649 170.012C100.426 170.093 100.284 170.218 100.278 170.35C100.233 171.32 100.214 172.292 100.195 173.264C100.195 173.299 100.29 173.337 100.355 173.43C100.395 173.814 100.376 174.152 100.453 174.466C100.751 175.674 101.13 176.864 101.382 178.08C101.625 179.254 102.391 180.123 103.018 181.054C103.552 181.848 103.656 182.016 103.207 182.86C102.917 183.406 102.713 183.998 102.486 184.576C102.305 185.036 102.147 185.505 101.98 185.971C101.876 185.989 101.773 186.008 101.67 186.027C101.252 185.403 100.795 184.8 100.431 184.147C100.22 183.768 100.176 183.3 99.6008 183.272C99.5092 183.268 99.4312 183.107 99.3361 183.032C98.6443 182.488 98.7604 181.621 98.6273 180.922C98.271 179.052 97.9943 177.146 97.928 175.246C97.872 173.645 98.1172 172.028 98.3013 170.427C98.4507 169.127 98.5876 167.806 98.9439 166.556C99.5049 164.587 100.248 162.67 100.904 160.728C100.95 160.593 100.91 160.43 100.91 160.28C100.867 160.271 100.824 160.262 100.782 160.253C100.293 161.037 99.8052 161.821 99.2917 162.629C99.2549 162.695 99.2435 162.737 99.2263 162.805C99.2205 162.83 99.1845 162.868 99.1368 162.868C98.9942 162.869 98.8992 162.871 98.8059 162.825C98.527 162.652 98.4811 162.711 98.2171 163.09C97.5889 163.99 96.94 164.875 96.2834 165.755C95.9732 166.17 95.6159 166.55 95.2987 166.961C94.9932 167.357 94.7201 167.777 94.4182 168.176C93.7428 169.068 92.9364 169.886 92.4068 170.856C91.6402 172.26 91.2444 173.823 90.9484 175.404C90.9055 175.634 90.5908 175.904 90.3466 175.982C89.9766 176.099 89.8537 175.799 89.8895 175.465C89.9211 175.169 89.9535 174.871 90.0258 174.583C90.1207 174.206 90.2964 173.846 90.3656 173.466C90.7141 171.551 91.7194 169.958 92.8642 168.453C93.7829 167.245 94.7966 166.109 95.8071 164.924C96.2434 164.529 96.6527 164.159 96.7557 163.601C96.6859 163.554 96.6161 163.507 96.5462 163.459C96.2285 163.916 95.9108 164.373 95.5447 164.829C95.1693 165.086 94.8207 165.322 94.5202 165.608C94.0483 166.058 93.6312 166.566 93.151 167.006C92.0306 168.033 90.8698 169.016 89.759 170.052C89.2134 170.562 88.7598 171.168 88.2335 171.7C87.5922 172.348 86.8617 172.916 86.2711 173.605C85.2643 174.78 84.301 175.996 83.3853 177.243C82.4537 178.512 81.5924 179.834 80.7213 181.146C80.5128 181.46 80.3856 181.828 80.2238 182.173C79.9137 182.834 79.6003 183.493 79.2993 184.158C79.1607 184.464 79.0656 184.79 78.9151 185.09C78.8567 185.206 78.6546 185.369 78.5972 185.342C78.4607 185.278 78.3268 185.131 78.2712 184.986C78.0778 184.485 78.3582 184.111 78.5842 183.675C79.0497 182.777 79.2979 181.758 79.8169 180.899C80.593 179.614 81.4964 178.401 82.3995 177.198C83.3765 175.897 84.3896 174.621 85.4386 173.377C85.9461 172.775 86.5769 172.279 87.1432 171.726C88.4048 170.494 89.6451 169.24 90.9261 168.029C91.5792 167.412 92.317 166.885 92.9852 166.283C93.2727 166.023 93.4807 165.676 93.7248 165.368C93.6734 165.317 93.622 165.266 93.5706 165.214C92.866 165.742 92.1597 166.268 91.457 166.798C90.0618 167.851 88.6633 168.9 87.2763 169.964C86.268 170.737 85.2353 171.486 84.2892 172.331C83.4729 173.06 82.7478 173.895 82.0113 174.709C81.2372 175.564 80.4859 176.441 79.7459 177.327C79.0479 178.162 78.3232 178.983 77.7083 179.878C76.896 181.06 76.205 182.325 75.4139 183.523C74.6667 184.654 73.8304 185.727 73.0813 186.857C71.6403 189.031 70.6505 191.428 69.919 193.912C69.4274 195.581 69.296 197.333 69.3574 199.084C69.3609 199.184 69.4034 199.294 69.459 199.379C69.9491 200.128 69.8642 200.344 68.9878 200.542C67.8849 200.792 66.7839 201.05 65.6772 201.282C65.3592 201.348 65.0049 201.272 64.7006 201.367C63.3437 201.793 61.996 202.249 60.6503 202.709C58.4414 203.465 56.2368 204.234 54.03 204.996C53.5384 205.166 52.8496 205.183 52.5906 205.526C51.9014 206.44 50.751 206.585 49.9618 207.422C48.9284 208.518 48.8423 210.278 49.3659 211.228C49.8239 212.059 49.8468 212.137 49.1097 212.738C48.8639 212.939 48.4412 213.015 48.3223 213.257C48.1535 213.602 47.3996 213.276 47.6155 213.938ZM66.3187 107.5C66.3063 107.562 66.2939 107.624 66.2815 107.686C66.3437 107.652 66.406 107.618 66.5362 107.57C66.5585 107.531 66.5809 107.493 66.703 107.451C67.7124 106.932 68.794 106.516 69.7115 105.868C70.6863 105.179 71.4836 104.245 72.3978 103.464C73.6579 102.387 74.4801 101.033 74.8813 99.459C75.1421 98.4355 74.9658 97.3597 74.4592 96.4383C73.9891 95.5833 73.1281 95.3889 72.1386 95.6555C72.2092 95.0718 72.415 94.6565 72.9613 94.5826C74.168 94.4193 75.1863 95.1089 75.4911 96.2695C75.9911 98.1733 75.7563 99.9682 74.6707 101.635C74.4359 101.995 74.237 102.379 73.9473 102.88C74.5939 102.446 75.1233 102.128 75.6116 101.757C76.8264 100.832 78.0148 99.8719 79.2381 98.9587C79.3564 98.8704 79.6555 98.9787 79.8495 99.0519C80.0027 99.1097 80.1153 99.2668 80.26 99.3573C81.2009 99.9459 82.1443 100.551 83.062 101.153C84.6328 102.183 86.4404 102.606 88.043 103.509C88.6847 103.87 89.4381 104.033 90.1399 104.288C90.8334 104.54 91.5141 104.836 92.2216 105.038C93.1878 105.315 94.1812 105.496 95.1496 105.766C96.4394 106.125 97.7172 106.527 98.9983 106.917C99.6879 107.127 100.371 107.358 101.062 107.565C101.841 107.799 102.576 107.956 103.293 107.287C103.819 106.796 104.492 106.462 105.158 106.019C104.812 105.718 104.391 105.349 103.968 104.983C102.723 103.904 101.513 102.78 100.218 101.764C99.3682 101.097 98.4155 100.55 97.4715 100.015C96.4623 99.4435 95.4219 98.9219 94.3717 98.4282C93.4469 97.9934 92.5024 97.5932 91.5436 97.2403C90.4876 96.8516 89.4034 96.5401 88.3359 96.1815C88.0881 96.0982 87.8614 95.954 87.6202 95.8487C86.9738 95.5667 86.3392 95.2477 85.6729 95.0244C85.0277 94.8082 84.3531 94.6711 83.6838 94.5373C81.8585 94.1722 80.0361 93.7844 78.1991 93.4893C76.9726 93.2923 75.7238 93.2303 74.4838 93.1225C72.3741 92.9391 70.2613 92.6093 68.1539 92.6382C66.3123 92.6634 64.4517 92.7574 62.6321 93.3841C61.6067 93.7372 60.6809 94.2492 59.7061 94.673C59.4139 94.8 59.1511 95.238 59.0812 95.5763C58.9758 96.0859 59.0518 96.6331 59.0507 97.1643C59.0486 98.2361 59.0251 99.3082 59.0487 100.379C59.1003 102.727 59.1858 105.074 59.2371 107.422C59.2621 108.566 59.2415 109.711 59.2415 110.856C59.3141 110.893 59.3868 110.929 59.4594 110.965C60.0807 110.516 60.7738 110.137 61.3003 109.596C61.7162 109.168 62.2904 108.709 62.0877 107.921C62.0731 107.864 62.4834 107.698 62.6961 107.582C62.7726 107.749 62.9043 107.913 62.9135 108.084C62.9299 108.387 62.8719 108.694 62.8451 108.999C62.917 109.029 62.989 109.059 63.0609 109.09C63.7486 108.199 64.4659 107.33 65.1117 106.41C65.4375 105.946 65.6553 105.399 65.8724 104.87C65.9222 104.749 65.7475 104.548 65.715 104.376C65.6902 104.245 65.6759 104.022 65.7445 103.979C66.1711 103.709 66.5444 103.891 66.5594 104.388C66.5776 104.988 66.6148 105.598 66.1459 106.104C66.0003 106.261 65.9842 106.538 65.7992 106.759C65.6661 106.87 65.533 106.98 65.3999 107.091C65.4441 107.139 65.4883 107.187 65.5324 107.235C65.6868 107.118 65.8411 107.001 66.0697 106.831C67.0984 105.925 67.9894 104.912 68.6217 103.68C68.9788 102.984 68.8683 101.848 68.3603 101.262C68.0824 100.941 68.073 100.642 68.5149 100.422C68.9278 100.217 69.4046 100.552 69.5763 101.203C69.9092 102.466 69.4993 103.615 68.8198 104.611C68.1427 105.603 67.2637 106.457 66.435 107.388C66.4107 107.405 66.3953 107.428 66.3187 107.5ZM12.34 71.9025C12.4421 71.7451 12.5442 71.5877 12.6462 71.4304C12.5858 71.3938 12.5254 71.3573 12.4649 71.3208C12.3665 71.4995 12.2682 71.6782 12.1156 71.8993C12.1177 71.9305 12.1197 71.9617 12.1217 71.993C12.1664 71.9773 12.2111 71.9615 12.34 71.9025ZM13.1612 70.3085C12.9663 70.5912 12.7714 70.8738 12.5765 71.1564C12.6655 71.208 12.7545 71.2595 12.8435 71.3111C12.9996 70.9884 13.1556 70.6658 13.3833 70.2908C13.5922 70.0104 13.8011 69.73 14.01 69.4496C13.9412 69.4042 13.8725 69.3589 13.8037 69.3135C13.6186 69.6361 13.4334 69.9587 13.1612 70.3085ZM12.621 78.5393C12.2862 79.1575 11.9514 79.7756 11.6165 80.3938C11.6861 80.4299 11.7557 80.4659 11.8252 80.502C12.1717 79.8646 12.5182 79.2271 12.9361 78.5434C13.0978 78.2337 13.2595 77.924 13.5218 77.6112C13.8416 77.0868 14.1613 76.5624 14.5776 76.034C14.6849 75.8591 14.7922 75.6843 14.9852 75.4757C15.3798 74.9194 15.7435 74.3377 16.1755 73.8122C17.106 72.6804 18.0245 71.5324 19.0364 70.4758C20.0086 69.4607 21.049 68.4993 22.1389 67.612C23.3209 66.6497 24.5861 65.7881 25.8314 64.9058C26.7992 64.2202 27.735 63.4559 28.7867 62.9298C30.6233 62.0111 32.5254 61.2178 34.4271 60.4378C35.0722 60.1732 35.7946 60.0833 36.4898 59.9592C36.9472 59.8776 37.1739 60.2158 36.946 60.545C36.673 60.9394 36.2875 61.3813 35.6945 61.2672C34.6089 61.0583 33.6976 61.5976 32.7763 61.9713C31.3647 62.5439 30.0019 63.2404 28.6347 63.9171C27.941 64.2605 27.2553 64.635 26.6148 65.0677C25.562 65.779 24.5222 66.5155 23.526 67.3033C22.3585 68.2266 21.1853 69.1565 20.1218 70.1936C19.0227 71.2652 17.9712 72.4076 17.0458 73.6302C15.8552 75.2033 14.78 76.8673 13.7152 78.5306C13.0975 79.4955 12.6022 80.5384 12.0432 81.5414C11.7927 81.9909 11.4667 82.4059 11.2699 82.8763C10.7863 84.0323 10.3414 85.2055 9.91244 86.3833C9.5902 87.2681 9.26368 88.1573 9.0342 89.0686C8.67613 90.4905 8.34314 91.9237 8.10935 93.3699C7.98372 94.147 8.08702 94.9611 8.08702 95.8603C8.30112 95.7095 8.63899 95.5998 8.7028 95.4018C8.87241 94.8755 8.89126 94.3025 9.03079 93.7639C9.19405 93.1336 9.42151 92.52 9.62111 91.8992C9.69917 91.9233 9.77723 91.9475 9.85529 91.9717C9.60565 93.1366 9.356 94.3015 9.0996 95.4979C9.48364 95.3811 9.74584 95.3485 9.95238 95.2237C10.1217 95.1215 10.2864 94.9296 10.3471 94.7429C10.7353 93.549 11.0473 92.3285 11.474 91.1493C12.0569 89.5384 12.6814 87.9399 13.3611 86.3676C13.8468 85.2443 14.4449 84.169 15.0071 83.0797C15.3813 82.3546 15.7464 81.621 16.1783 80.9305C16.637 80.1971 17.1928 79.5248 17.6613 78.797C17.9238 78.3893 18.0685 77.907 18.3182 77.4892C18.4678 77.2389 18.7622 77.0168 19.0095 77.3493C19.1789 77.577 19.3663 78.0066 19.2642 78.1843C18.8018 78.9894 18.3282 79.8221 17.6925 80.4856C16.695 81.5267 16.2262 82.8548 15.5434 84.0588C14.7919 85.384 14.204 86.805 13.5877 88.2032C13.075 89.3664 12.5778 90.5408 12.1607 91.7405C11.8148 92.7353 11.5956 93.7741 11.3142 94.8158C11.8308 94.7029 12.3388 94.6277 12.8244 94.479C14.1008 94.088 15.369 93.6695 16.6371 93.2516C16.9321 93.1543 17.2493 93.0649 17.4941 92.8865C18.1241 92.4275 18.6898 91.877 19.3343 91.4416C20.9001 90.3838 21.7922 88.9754 22.0122 87.0683C22.1858 85.5637 21.0565 83.1998 19.5348 82.8217C19.4598 82.8031 19.4147 82.6648 19.2939 82.4959C19.7515 82.4261 20.1303 82.3783 20.505 82.3088C21.0534 82.2071 21.5984 82.0876 22.1457 81.9803C22.3622 81.9378 22.5889 81.8553 22.7966 81.8866C22.9988 81.9171 23.1725 82.1169 23.3763 82.161C24.3241 82.3662 24.9328 82.9988 25.529 83.7051C25.7802 84.0027 26.0672 84.5998 26.6827 84.0908C26.7693 84.0192 27.062 84.1984 27.2599 84.2598C27.5777 84.3585 27.8959 84.4558 28.2994 84.58C27.9141 84.1805 27.6066 83.9164 27.3776 83.5962C27.2916 83.476 27.3878 83.2254 27.4009 83.0343C27.584 83.1 27.8257 83.1131 27.9401 83.2406C28.461 83.821 28.9176 83.9239 29.5966 83.5927C30.6935 83.0576 31.1208 82.1663 31.0238 80.9858C30.9927 80.6082 30.9652 80.2398 30.4371 80.1918C30.3145 80.1807 30.214 79.9263 30.1033 79.7839C30.2569 79.6656 30.4109 79.4498 30.5641 79.4503C30.8463 79.4514 31.128 79.5796 31.4213 79.6579C30.9973 78.8978 30.7408 78.0173 29.781 77.6697C29.6483 77.6216 29.6464 77.2126 29.584 76.9707C29.7757 76.9215 30.0241 76.7706 30.1494 76.8405C30.7496 77.1749 31.2636 77.6006 31.4444 78.3296C31.5051 78.5743 31.7088 78.7836 31.8472 79.0091C31.899 78.982 31.9508 78.9549 32.0025 78.9278C31.8129 78.1888 31.6956 77.4207 31.4132 76.7191C31.1289 76.0129 30.8656 75.3105 29.938 75.0016C29.2793 74.7823 28.6713 74.4301 27.9463 74.3724C27.7917 74.36 27.5508 74.0882 27.538 73.9215C27.5123 73.5855 27.7512 73.4175 28.1043 73.4809C28.3374 73.5227 28.5944 73.5204 28.7979 73.6228C29.6547 74.0542 30.7067 74.1417 31.2757 75.0915C31.5044 75.4733 31.864 75.7768 32.2005 76.1572C32.2005 74.7633 32.2005 73.4684 32.2005 72.1532C31.9194 72.1532 31.6711 72.1156 31.4381 72.1594C30.0749 72.4154 28.7184 72.71 27.3192 72.4201C26.4338 72.2366 25.5429 72.08 24.6556 71.9054C24.0744 71.7911 23.9739 71.448 24.1798 70.9305C24.4934 70.1422 24.7841 69.3447 25.083 68.5506C25.229 68.1626 25.4772 68.0037 25.905 68.1097C26.782 68.327 27.6564 68.6221 28.5481 68.7C30.6846 68.8868 32.788 68.6231 34.8136 67.8907C35.3581 67.6938 35.8583 67.3759 36.4005 67.1712C37.4268 66.7839 38.2671 66.2138 38.7454 65.1775C38.9345 64.7677 39.2661 64.6743 39.6479 65.0101C39.4407 65.4465 39.2416 65.866 39.0425 66.2855C39.9849 65.8306 40.3629 64.9826 40.7822 64.1825C40.9154 63.9285 40.9265 63.5673 40.8816 63.2722C40.7859 62.6428 41.0837 62.2047 41.8304 62.1033C41.8304 62.641 41.9607 63.2147 41.7994 63.6893C41.5665 64.3745 41.1186 64.986 40.7699 65.6329C40.629 65.8942 40.5077 66.1661 40.2963 66.5999C41.0166 66.3078 41.5719 66.1608 42.0451 65.8768C43.7311 64.8648 45.5123 63.9874 46.9523 62.6096C47.3702 62.2097 47.9621 61.7991 48.0674 61.3065C48.2678 60.3691 48.6373 59.3836 48.1547 58.3904C47.886 57.8374 46.6961 57.3232 46.1675 57.6406C45.7667 57.8814 45.4324 58.2302 45.0527 58.5095C44.6032 58.8402 44.1368 59.1478 43.6778 59.4654C43.6371 59.4178 43.5964 59.3702 43.5557 59.3227C44.3014 57.6418 44.7969 55.7999 46.5989 54.7763C46.3834 54.7217 46.2015 54.6871 46.0376 54.7269C44.1336 55.1897 42.2104 55.5913 40.3362 56.1549C38.4179 56.7318 36.5245 57.4114 34.6644 58.1563C33.1039 58.7813 31.5999 59.5504 30.0852 60.285C29.4123 60.6113 28.7296 60.9488 28.1305 61.389C26.9893 62.2274 25.9056 63.1441 24.7968 64.0267C23.8778 64.7583 22.8584 65.394 22.0577 66.2376C20.3858 67.9992 18.782 69.8315 17.2423 71.7102C16.294 72.8674 15.5157 74.1638 14.5825 75.4219C14.5142 75.6009 14.446 75.7799 14.294 75.9847C13.9616 76.4928 13.6292 77.0008 13.2226 77.5617C13.0493 77.8711 12.8759 78.1805 12.621 78.5393ZM20.577 130.116C20.4523 130.061 20.3276 130.006 20.2029 129.951C20.1863 129.993 20.1696 130.034 20.153 130.076C20.2451 130.157 20.3372 130.238 20.4678 130.405C22.5966 132.923 24.9184 135.248 27.3058 137.428C27.6452 136.477 27.8376 135.573 28.2695 134.803C29.1785 133.184 30.1629 131.606 31.6146 130.373C32.2824 129.806 32.3238 128.732 31.8509 128.053C31.7121 128.263 31.5761 128.482 31.4274 128.692C30.6669 129.764 29.5782 130.426 28.3845 130.831C27.5162 131.125 26.5591 131.209 25.6341 131.267C25.0645 131.303 24.4773 131.026 23.9041 131.047C22.7066 131.093 21.6697 130.617 20.577 130.116ZM52.5076 64.9996C53.305 64.3467 54.0204 63.5382 55.2918 63.5932C55.3511 63.8387 55.5606 64.2368 55.4521 64.3643C55.2794 64.5673 54.8921 64.5828 54.6004 64.6906C54.1975 64.8397 53.6982 64.8981 53.4165 65.1749C52.2859 66.2859 51.2116 67.4575 50.5419 68.9284C50.5003 69.0198 50.4858 69.1239 50.4418 69.2137C49.9922 70.1298 49.5918 71.0556 49.7609 72.2044C50.1395 71.5878 50.4062 71.0097 50.8024 70.5412C51.4429 69.7837 51.8695 69.7272 52.4179 70.2174C51.5921 70.6007 50.9615 71.0924 50.6665 72.0364C50.3532 73.0386 50.5717 74.001 50.9622 74.7749C51.7677 76.3715 53.402 76.8939 55.0607 77.0041C55.9818 77.0653 56.9291 76.7064 57.867 76.5512C58.3855 76.4654 58.5849 76.2097 58.5649 75.6607C58.4946 73.7306 58.4551 71.7989 58.4353 69.8675C58.4159 67.9776 58.4667 66.0867 58.4278 64.1975C58.3918 62.4473 58.2789 60.6986 58.1956 58.9494C58.1919 58.8729 58.145 58.7984 58.094 58.6549C57.5787 59.1135 57.0911 59.5154 56.6409 59.9556C55.9246 60.6561 55.1985 61.3518 54.5405 62.1053C53.7496 63.0108 53.0257 63.9747 52.1997 64.966C52.081 65.1527 51.9623 65.3395 51.8437 65.5262C51.9006 65.5633 51.9575 65.6004 52.0145 65.6376C52.149 65.4306 52.2836 65.2237 52.5076 64.9996ZM82.2261 150.15C82.6261 150.084 83.0395 150.061 83.4234 149.942C84.259 149.684 85.0593 149.254 85.9101 149.115C88.041 148.765 89.9714 147.943 91.8232 146.887C93.3793 146 94.968 145.162 96.4724 144.194C98.3431 142.99 100.186 141.732 101.956 140.386C103.149 139.479 104.201 138.385 105.307 137.366C106.138 136.6 106.989 135.852 107.768 135.036C108.598 134.169 109.363 133.238 110.141 132.322C110.782 131.566 111.409 130.796 112.024 130.019C112.134 129.88 112.16 129.674 112.211 129.536C110.944 130.048 109.709 130.558 108.465 131.046C107.596 131.386 106.665 131.603 105.849 132.039C104.29 132.871 102.792 133.817 101.271 134.72C100.306 135.293 99.3113 135.824 98.3891 136.46C97.0165 137.406 95.6883 138.418 94.3556 139.421C92.9243 140.498 91.5124 141.6 90.0869 142.685C88.1135 144.186 86.2572 145.816 84.5344 147.603C83.9084 148.253 83.1694 148.792 82.5003 149.401C82.296 149.587 82.1526 149.84 81.9127 150.11C81.8994 150.158 81.8861 150.207 81.8728 150.256C81.9539 150.223 82.035 150.19 82.2261 150.15ZM37.7358 129.021C36.9726 129.275 36.2095 129.529 35.5081 129.762C36.4021 129.84 37.3563 129.84 38.2711 130.031C38.8643 130.154 39.4059 130.543 39.9553 130.842C40.0413 130.888 40.1068 131.107 40.0707 131.206C40.0342 131.306 39.8511 131.425 39.7474 131.412C39.5494 131.387 39.3584 131.283 39.1711 131.198C38.6655 130.967 38.1717 130.557 37.6578 130.532C36.7394 130.486 35.7839 130.567 34.8911 130.787C33.7247 131.073 32.6257 131.588 31.7116 132.415C31.6312 132.488 31.557 132.591 31.4618 132.62C30.876 132.794 30.7361 133.274 30.6326 133.785C30.6038 133.927 30.6194 134.146 30.5339 134.199C29.7998 134.653 29.9627 135.341 30.0472 135.996C30.1308 136.646 30.3876 137.281 29.5898 137.746C29.2218 137.96 28.9964 138.42 28.6717 138.809C31.5242 140.719 34.3459 142.627 37.3785 144.107C37.6692 143.408 37.8476 142.755 38.1899 142.203C38.8311 141.17 39.5433 140.155 40.5646 139.463C42.3338 138.264 44.0689 137.023 46.3045 136.719C47.8664 136.507 49.3932 136.327 50.9325 136.754C51.5973 136.938 52.3076 137.642 52.1003 138.365C52.0313 138.606 51.7016 138.873 51.4448 138.934C51.0765 139.023 50.9047 138.73 50.9339 138.355C50.9854 137.695 50.4677 137.514 50.0167 137.448C49.2 137.329 48.3582 137.247 47.5389 137.309C46.0449 137.422 44.6634 137.984 43.3192 138.621C43.1818 138.686 43.081 138.828 42.9461 138.95C43.5457 139.024 44.0882 139.063 44.6183 139.166C45.0468 139.249 45.096 139.593 44.8214 139.84C44.6608 139.985 44.2807 140.021 44.0584 139.941C42.9758 139.553 42.0189 139.815 41.1435 140.453C40.7388 140.748 40.4556 141.222 40.0344 141.48C39.0612 142.074 38.9754 142.996 38.9906 143.967C39.006 144.957 39.8076 145.373 40.5225 145.682C41.0979 145.931 41.7287 145.729 42.1814 145.122C42.3264 144.927 42.8869 144.821 43.0969 144.945C43.4757 145.169 43.3114 145.556 43.0112 145.822C42.755 146.048 42.4818 146.256 42.1037 146.563C43.3814 146.977 44.568 147.39 45.7715 147.744C47.2265 148.174 48.6976 148.548 50.1578 148.96C50.5699 149.076 50.9583 149.286 51.3742 149.377C52.501 149.625 53.6373 149.829 54.7686 150.057C56.0381 150.313 57.3062 150.576 58.6954 150.86C58.6039 148.759 58.5164 146.75 58.429 144.742C57.9583 145.154 57.6567 145.618 57.3013 146.036C56.7209 146.719 56.3589 147.588 55.2854 147.806C54.3642 147.993 53.5369 148.099 52.7909 147.444C52.0756 146.816 51.8661 145.366 52.4181 144.416C52.9476 143.506 53.4687 142.543 54.1984 141.807C55.2936 140.701 56.5463 139.745 57.777 138.783C58.2196 138.436 58.5091 138.143 58.5052 137.525C58.4795 133.503 58.495 129.48 58.4961 125.457C58.4962 125.259 58.4863 125.06 58.4831 124.862C58.4579 123.328 58.4137 121.793 58.4146 120.259C58.4154 118.961 58.639 117.639 58.4558 116.372C58.2255 114.78 58.5634 113.198 58.2776 111.607C58.1119 110.685 58.3463 109.695 58.3683 108.735C58.3911 107.741 58.4086 106.745 58.3648 105.753C58.3297 104.957 58.1356 104.167 58.1234 103.373C58.0893 101.157 58.114 98.9397 58.112 96.723C58.1119 96.5369 58.0854 96.3509 58.0685 96.1302C57.9303 96.1633 57.8217 96.1561 57.769 96.2069C57.0638 96.8857 56.3367 97.5453 55.6762 98.2657C55.0918 98.9032 54.3353 99.4279 54.1991 100.407C54.1726 100.597 53.8026 100.74 53.5911 100.904C53.5424 100.856 53.4937 100.808 53.445 100.76C53.445 101.107 53.445 101.453 53.445 101.824C53.9856 101.972 54.5213 102.112 55.0523 102.268C55.2279 102.32 55.5172 102.392 55.5331 102.49C55.562 102.669 55.4493 102.888 55.3527 103.067C55.0794 103.572 54.6746 104.037 54.5308 104.574C54.4034 105.049 54.1552 105.206 53.7649 105.295C53.3424 105.392 52.9181 105.521 52.4898 105.544C51.9742 105.571 51.3764 105.653 50.9513 105.439C50.0883 105.004 49.8937 103.938 50.3777 103.054C51.5174 100.972 52.9884 99.1214 54.5231 97.3328C55.5219 96.1688 56.6982 95.1584 57.7667 94.0518C57.9535 93.8582 58.0923 93.5302 58.0963 93.2619C58.1276 91.1406 58.1216 89.0188 58.1256 86.8971C58.1274 85.9289 58.1259 84.9607 58.1259 84.0665C52.7842 85.4235 47.4987 86.7663 42.1561 88.1236C42.9657 88.4259 43.7223 88.6634 44.4407 88.9863C45.785 89.5905 47.0949 90.272 48.443 90.8671C49.2755 91.2346 49.6742 91.7116 49.6926 92.628C49.7211 94.0451 49.7451 95.4623 49.7665 96.8796C49.8004 99.1252 49.8664 101.371 49.8486 103.617C49.8383 104.902 49.6451 106.186 49.6165 107.472C49.5931 108.522 49.7079 109.574 49.7329 110.626C49.7884 112.961 49.8182 115.298 49.8745 117.633C49.8962 118.531 49.9848 119.427 50.0014 120.325C50.0236 121.533 50.0578 122.744 49.9869 123.949C49.9394 124.755 49.9866 124.94 50.8027 125.141C51.2217 125.245 51.7081 125.236 52.0505 125.456C52.851 125.968 53.6119 126.554 54.3351 127.173C55.2202 127.931 55.4603 128.906 54.8436 129.854C54.0723 131.04 53.4089 132.326 52.3044 133.267C52.159 133.391 51.9402 133.429 51.7555 133.506C51.7665 133.262 51.74 133.009 51.7964 132.776C51.9216 132.258 52.3051 131.686 51.8354 131.239C51.096 130.535 50.322 129.822 49.445 129.318C47.7371 128.335 45.8017 128.255 43.8799 128.222C43.7915 128.221 43.7027 128.219 43.6148 128.226C43.5279 128.233 43.4419 128.251 43.2634 128.279C44.9064 128.885 46.3811 129.558 47.4409 130.875C48.1285 131.73 48.749 132.57 48.6627 133.816C48.6097 134.581 47.892 135.627 47.0527 135.907C46.6083 136.056 46.2182 135.743 46.1024 135.367C45.9966 135.024 46.3077 134.868 46.6762 134.71C47.0368 134.555 47.4782 134.045 47.4789 133.691C47.4817 132.303 46.589 131.319 45.6005 130.499C44.8854 129.905 43.9898 129.626 43.0649 129.353C41.3176 128.836 39.5985 128.664 37.7358 129.021ZM21.6514 100.035C21.1369 100.335 20.6049 100.609 20.1118 100.94C19.2402 101.527 18.4347 102.184 17.7733 103.023C16.7189 104.36 15.8302 105.79 15.2666 107.395C14.7649 108.823 14.3485 110.281 13.9108 111.731C13.8155 112.047 13.7895 112.384 13.7274 112.735C14.4547 111.779 15.0901 110.864 15.8215 110.035C16.0156 109.815 16.6463 109.672 16.8293 109.814C17.2093 110.107 16.7647 110.331 16.5581 110.595C15.9345 111.391 15.3471 112.218 14.7917 113.063C14.0237 114.232 14.0607 115.574 14.0703 116.896C14.0805 118.299 14.5571 119.498 15.6747 120.404C15.7637 120.476 15.8441 120.727 15.8068 120.761C15.4991 121.041 15.2198 121.454 14.7003 121.157C14.5082 121.048 14.3142 120.941 14.0384 120.787C14.5761 122.702 15.9568 123.691 17.653 124.535C17.1954 124.861 16.8947 125.075 16.4707 125.377C17.1784 126.19 17.9139 127.049 18.67 127.891C18.8408 128.081 19.0635 128.251 19.296 128.354C20.8113 129.028 22.3587 129.541 24.0561 129.163C25.7357 128.79 27.3266 128.231 28.4226 126.807C28.7606 126.368 28.9289 125.802 29.2052 125.311C29.9035 124.071 29.5982 122.451 28.5198 121.538C28.3729 121.414 28.3865 121.1 28.3258 120.874C28.5737 120.815 28.9061 120.625 29.0554 120.72C29.7987 121.196 30.5061 121.792 30.5966 122.725C30.766 124.47 30.4835 126.14 29.3474 127.559C28.2198 128.967 26.6914 129.682 24.9553 130.054C25.0371 130.094 25.126 130.152 25.2236 130.18C25.3276 130.211 25.4399 130.228 25.5482 130.226C27.7918 130.189 29.5527 129.252 30.7963 127.378C31.0055 127.062 31.1847 126.721 31.3319 126.372C31.6214 125.686 32.0297 125.004 32.1151 124.287C32.2539 123.123 32.1938 121.932 32.1795 120.753C32.1544 118.688 31.4877 116.865 30.0483 115.353C29.5058 114.783 28.856 114.463 28.0533 114.464C27.7054 114.465 27.4395 114.49 27.3116 114.903C27.2141 115.218 26.7023 115.224 26.4614 114.953C26.1683 114.622 26.4739 113.604 26.9316 113.578C27.5981 113.541 28.3186 113.521 28.9347 113.732C30.2705 114.188 31.0458 115.324 31.7969 116.447C31.8922 116.59 32.0184 116.711 32.1791 116.9C32.2328 116.713 32.2676 116.651 32.2661 116.589C32.212 114.389 32.1072 112.189 32.1129 109.989C32.1172 108.318 31.2475 107.125 30.1939 106C29.9053 105.692 29.5822 105.372 29.2092 105.197C28.5146 104.872 27.7847 104.604 27.0459 104.396C25.9399 104.085 24.8176 103.701 23.7353 104.549C23.5898 104.663 23.2111 104.554 22.9882 104.448C22.9222 104.417 22.9369 103.947 23.0577 103.841C23.4483 103.498 23.8843 103.193 24.3415 102.944C25.2311 102.459 26.2377 102.291 27.2145 102.295C28.4177 102.3 29.6256 102.493 30.8194 102.682C31.2419 102.748 31.6288 103.041 32.1209 103.271C32.2066 98.9242 32.2896 94.7135 32.3731 90.4763C32.2428 90.519 32.1231 90.5696 31.9983 90.5974C29.818 91.084 27.6352 91.5596 25.457 92.0553C24.1285 92.3576 22.803 92.6747 21.4833 93.0131C20.2568 93.3276 19.0389 93.6759 17.8189 94.0157C17.2181 94.1831 16.6128 94.3405 16.0244 94.5453C14.8367 94.9588 13.4652 94.7373 12.4034 95.5921C12.3686 95.6201 12.2415 95.5085 12.1753 95.5268C11.6769 95.6647 10.9979 95.4878 10.8755 96.2889C10.7039 97.4128 10.5055 98.5327 10.3305 99.6561C10.244 100.211 10.1491 100.769 10.1192 101.328C10.0449 102.712 9.89499 104.106 9.98087 105.482C10.0884 107.206 10.3982 108.917 10.6273 110.632C10.6968 111.153 10.7878 111.671 10.869 112.191C11.0647 111.255 11.0958 110.337 11.182 109.424C11.2636 108.56 11.3709 107.696 11.5252 106.842C11.7212 105.758 11.9469 104.676 12.2153 103.608C12.4072 102.843 12.6638 102.092 12.9404 101.353C13.1941 100.675 13.4967 100.014 13.81 99.3612C13.9818 99.0033 14.1987 98.6596 14.4498 98.3545C14.4912 98.3041 14.9706 98.4691 14.9808 98.5633C15.0257 98.9794 15.024 99.3531 14.7094 99.7753C14.1296 100.553 13.6423 101.434 13.2908 102.339C12.9551 103.204 12.7924 104.146 12.6408 105.069C12.3843 106.63 12.1963 108.203 11.9801 109.771C11.9563 109.943 11.977 110.134 11.9082 110.285C11.4415 111.311 11.6645 112.33 11.85 113.401C11.9592 113.316 12.0489 113.282 12.0574 113.235C12.2189 112.323 12.3518 111.405 12.5305 110.497C12.6852 109.711 12.8693 108.929 13.0777 108.155C13.2894 107.369 13.6579 106.609 13.7536 105.812C13.8533 104.983 14.2513 104.295 14.6274 103.638C15.3191 102.431 16.1607 101.302 17.0167 100.2C18.2333 98.633 19.7502 97.4462 21.7652 97.1236C22.5524 96.9976 23.3801 97 23.9707 97.7863C24.4114 98.373 24.4107 99.0009 24.1207 99.5569C23.9859 99.8152 23.4579 99.927 23.0887 99.9893C22.6587 100.062 22.2073 100.007 21.6514 100.035ZM101.044 122.571C101.669 122.783 102.318 122.943 102.916 123.216C104.257 123.828 105.551 124.546 106.903 125.129C108.911 125.994 110.88 126.919 112.706 128.131C112.814 128.202 113.141 128.153 113.196 128.059C113.514 127.518 113.957 126.969 114.028 126.382C114.175 125.176 114.267 123.923 114.099 122.73C113.873 121.127 113.395 119.558 112.994 117.983C112.863 117.47 112.678 116.96 112.438 116.49C112.021 115.675 111.477 114.921 111.1 114.09C110.129 111.949 108.391 110.374 107.132 108.485C106.002 109.338 104.934 110.179 103.456 110.692C103.618 110.446 103.679 110.361 103.732 110.272C104.079 109.7 103.658 109.298 103.36 108.936C103.107 108.629 102.734 108.594 102.338 108.872C101.204 109.665 100.029 110.399 98.8952 111.194C97.7975 111.963 96.7358 112.783 95.6515 113.571C94.3152 114.543 92.9734 115.507 91.6307 116.469C91.2604 116.735 90.8759 116.98 90.5018 117.241C89.7804 117.742 89.0617 118.248 88.3685 118.734C89.0481 118.909 89.7307 119.081 90.4115 119.261C92.2578 119.747 94.1067 120.225 95.9477 120.73C96.82 120.97 97.6871 121.238 98.5374 121.545C99.3526 121.84 100.143 122.204 101.044 122.571ZM65.9865 113.674C66.4815 113.853 67.0034 113.981 67.4667 114.221C69.6641 115.361 72.0679 115.758 74.4586 116.191C76.3698 116.538 78.2926 116.82 80.2089 117.139C80.6305 117.209 81.046 117.315 81.4653 117.399C82.4785 117.603 83.4979 117.78 84.5043 118.013C85.7772 118.307 86.9744 118.665 88.1931 117.66C89.3724 116.688 90.7322 115.934 92.1308 115.006C91.3189 114.836 90.648 114.744 90.0078 114.55C88.321 114.04 86.6452 113.493 84.9694 112.947C83.9782 112.624 82.9681 112.339 82.0141 111.927C79.7425 110.945 77.477 109.943 75.2535 108.859C74.0696 108.281 72.9845 107.503 71.8409 106.84C71.4696 106.625 71.0198 106.293 70.667 106.356C70.1518 106.448 69.6844 106.836 69.2099 107.121C68.5328 107.526 67.8832 107.979 67.1936 108.361C66.3892 108.807 65.5474 109.184 64.7353 109.616C64.1493 109.928 63.5769 110.268 63.0145 110.62C62.5875 110.888 62.186 111.197 61.6378 111.582C63.1348 112.289 64.5231 112.945 65.9865 113.674ZM85.6308 130.493C84.4572 130.222 83.2927 129.898 82.1077 129.693C80.2698 129.374 78.4218 129.105 76.5699 128.882C75.8265 128.793 75.0484 128.973 74.3098 128.866C73.4852 128.747 72.8773 129.082 72.2631 129.503C71.2084 130.224 70.1573 130.95 69.1075 131.679C68.6022 132.03 68.1034 132.39 67.6017 132.746C67.6265 132.799 67.6512 132.853 67.676 132.907C67.9818 132.86 68.2926 132.752 68.5924 132.777C70.1896 132.911 71.7916 133.026 73.3763 133.255C74.1874 133.373 74.9553 133.762 75.7612 133.948C77.3742 134.32 78.9116 134.868 80.4545 135.478C81.6432 135.948 82.8039 136.45 83.9426 137.02C84.8285 137.463 85.7568 137.836 86.5973 138.352C88.0122 139.222 89.3724 140.18 90.7962 141.128C91.6407 140.526 92.6427 139.818 93.6383 139.101C94.5146 138.47 95.3778 137.821 96.2583 137.196C96.7426 136.852 97.2626 136.557 97.7373 136.202C97.8311 136.131 97.8687 135.792 97.7991 135.733C97.5319 135.504 97.218 135.326 96.908 135.153C95.944 134.617 94.9882 134.063 94.0021 133.569C92.8448 132.99 91.6681 132.448 90.4815 131.931C89.9546 131.702 89.3844 131.571 88.8308 131.405C87.804 131.097 86.7751 130.797 85.6308 130.493ZM68.1352 151.613C71.6563 151.735 75.1206 151.25 78.5819 150.747C78.1412 150.286 77.7951 149.839 77.3684 149.493C76.1235 148.481 74.8696 147.477 73.574 146.532C72.6618 145.867 71.7089 145.241 70.7145 144.709C69.4291 144.021 68.089 143.434 66.7633 142.824C65.8461 142.401 64.934 141.952 63.9825 141.623C62.7792 141.206 61.5429 140.88 60.3103 140.555C59.9972 140.473 59.6439 140.543 59.2854 140.543C59.2854 142.548 59.2794 144.471 59.2912 146.395C59.2932 146.716 59.4025 147.035 59.4103 147.357C59.4299 148.173 59.4068 148.99 59.4253 149.806C59.4504 150.913 59.125 151.103 60.5568 151.09C61.5575 151.081 62.5634 151.024 63.5581 151.103C65.0457 151.221 66.5255 151.438 68.1352 151.613ZM70.8909 129.152C71.0719 129.025 71.253 128.898 71.5346 128.7C69.8265 128.437 68.2603 128.196 66.6941 127.954C65.2479 127.731 63.8017 127.508 62.3557 127.285C62.2909 127.275 62.2234 127.266 62.1639 127.241C61.2094 126.838 60.256 126.431 59.2596 126.008C59.2596 129.859 59.2596 133.686 59.2596 137.69C63.4074 135.084 66.9601 131.937 70.8909 129.152ZM59.0516 91.5693C59.0516 91.9163 59.0516 92.2633 59.0516 92.7274C63.9381 88.385 68.6861 84.1658 73.4341 79.9464C73.4002 79.891 73.3663 79.8356 73.3324 79.7801C72.7186 79.9701 72.1102 80.1806 71.4898 80.3462C69.7871 80.8008 68.0787 81.2339 66.3745 81.6829C66.1489 81.7424 65.9405 81.8696 65.7141 81.9227C64.9578 82.1002 64.1921 82.2388 63.439 82.4282C62.2395 82.73 61.0519 83.08 59.8497 83.3702C59.3215 83.4977 59.0362 83.6716 59.0466 84.3101C59.0851 86.6864 59.0553 89.0638 59.0516 91.5693ZM49.1935 67.8035C49.2029 68.0065 49.2122 68.2096 49.2288 68.5679C49.5361 67.9803 49.724 67.5187 49.998 67.1157C50.9305 65.7447 51.8335 64.3471 52.8597 63.048C54.1646 61.3961 55.5759 59.83 57.2611 58.5363C57.5922 58.2821 58.0709 57.9441 58.0955 57.6158C58.1925 56.3255 58.1352 55.0236 58.1352 53.5742C57.399 53.5742 56.7257 53.5412 56.057 53.5831C55.3191 53.6293 54.5861 53.7498 53.8498 53.8277C52.8401 53.9345 51.8295 54.0316 50.739 54.1409C50.8383 54.266 50.8933 54.352 50.9642 54.422C51.8953 55.34 52.1417 56.4749 51.6988 57.6426C51.1615 59.0591 50.4353 60.4033 49.8126 61.7886C49.5551 62.3614 49.1125 62.8232 49.1664 63.5714C49.2646 64.9342 49.1938 66.3092 49.1935 67.8035ZM55.3696 144.738C56.2246 145.101 57.0321 144.773 57.8202 144.512C58.0505 144.435 58.3226 144.086 58.3427 143.843C58.4362 142.712 58.468 141.574 58.4764 140.439C58.4789 140.101 57.9745 139.969 57.6691 140.207C56.645 141.003 55.6503 141.841 54.5944 142.592C54.1245 142.927 54.1707 143.337 54.3478 143.67C54.5586 144.067 54.957 144.363 55.3696 144.738ZM65.4466 53.9452C65.3054 53.9731 65.1618 54.034 65.0235 54.0238C63.5505 53.9151 62.0789 53.7886 60.6057 53.6834C60.2719 53.6596 59.9258 53.749 59.599 53.6982C59.0787 53.6172 58.9839 53.8635 59.016 54.2932C59.0501 54.7491 59.0747 55.2062 59.0864 55.6632C59.0982 56.1221 59.089 56.5816 59.089 57.1999C61.5338 55.6219 64.0691 54.7476 66.7525 54.2438C66.3509 54.1565 65.9494 54.0693 65.4466 53.9452ZM49.2991 76.7028C49.2991 77.5621 49.2991 78.4215 49.2991 79.2803C50.7928 78.9285 52.2938 78.575 53.7273 78.2375C52.9556 77.9329 52.1241 77.6958 51.3867 77.2882C50.6414 76.8763 49.9893 76.2955 49.2991 75.7908C49.2991 76.0144 49.2991 76.3001 49.2991 76.7028ZM8.83506 99.4212C8.75249 100.191 8.61446 100.96 8.60311 101.732C8.592 102.486 8.70348 103.243 8.77431 103.998C8.80491 104.324 8.57404 104.765 9.13589 104.895C9.16585 104.902 9.13976 105.151 9.13976 105.288C9.09642 102.217 9.35204 99.1681 10.0038 96.0651C9.58636 96.1793 9.30297 96.2568 9.07398 96.3195C8.99278 97.3526 8.91607 98.3285 8.83506 99.4212ZM8.46531 98.1895C8.46531 97.5698 8.46531 96.9502 8.46531 96.3305C8.20738 96.4501 7.97262 96.6263 7.95075 96.8258C7.85088 97.7368 7.74954 98.6552 7.76322 99.5693C7.78479 101.011 7.88388 102.452 7.98204 103.891C8.00788 104.27 8.15087 104.641 8.24006 105.015C8.30141 105.007 8.36277 104.999 8.42413 104.991C8.31002 102.763 7.90625 100.53 8.46531 98.1895ZM100.894 166.557C100.643 167.418 100.44 168.283 100.646 169.218C101.019 167.447 101.383 165.721 101.728 164.084C101.17 164.696 101.003 165.558 100.894 166.557ZM31.2748 83.4072C31.2674 83.3866 31.2634 83.3635 31.2511 83.3465C31.2449 83.3379 31.2171 83.3328 31.2098 83.3389C30.6851 83.7794 30.1615 84.2212 29.655 84.6484C30.4696 84.6653 31.0759 84.3714 31.2748 83.4072ZM19.59 61.9437C19.4738 61.9048 19.2807 61.803 19.2532 61.8367C19.0013 62.1448 18.7781 62.4764 18.44 62.9504C19.1091 62.8371 19.2801 62.3883 19.59 61.9437ZM14.2131 69.1093C14.1955 69.0324 14.1779 68.9556 14.1603 68.8787C14.0877 68.9865 14.0152 69.0942 13.9426 69.202C14.0106 69.1933 14.0785 69.1846 14.2131 69.1093ZM68.7149 171.248C68.7328 171.235 68.7531 171.225 68.7675 171.209C68.775 171.2 68.7723 171.183 68.7742 171.169C68.6387 171.159 68.5032 171.149 68.3678 171.139C68.3666 171.179 68.3655 171.219 68.3644 171.259C68.4471 171.259 68.5299 171.259 68.7149 171.248ZM65.3068 107.357C65.2141 107.356 65.1211 107.352 65.0293 107.36C65.0233 107.361 65.0265 107.46 65.0254 107.513C65.1094 107.499 65.1935 107.485 65.3068 107.357ZM69.078 171.17C69.0457 171.168 69.0133 171.166 68.981 171.164C68.9963 171.18 69.0116 171.195 69.078 171.17Z" fill="#F1F3F4"></path>
<path d="M0 102.057C0.0644154 102.001 0.185376 102.009 0.185247 102.012C0.163694 102.577 0.133461 103.142 0.0517843 103.713C2.75671e-07 103.186 2.65267e-07 102.652 0 102.057Z" fill="#F1F3F4"></path>
<path d="M2.6879e-07 100.448C0.0865008 100.402 0.173001 100.4 0.310149 100.378C0.261784 100.499 0.162772 100.64 0.0318795 100.725C2.64496e-07 100.61 2.6879e-07 100.551 2.6879e-07 100.448Z" fill="#F1F3F4"></path>
<path d="M43.6456 46.4321C43.7068 46.4369 43.768 46.4417 43.8742 46.4579C43.3253 46.7509 42.7467 47.0733 42.1332 47.3022C41.5781 47.5093 40.985 47.6144 40.4086 47.7644C40.3759 47.703 40.3431 47.6416 40.3104 47.5802C40.6275 47.3703 40.9446 47.1603 41.3603 46.9648C42.133 46.7017 42.8596 46.5018 43.2352 45.7815C43.4563 45.5898 43.6774 45.3981 43.9677 45.2629C44.1622 45.24 44.2875 45.1606 44.4129 45.0813C44.4129 45.0813 44.4191 45.0806 44.4576 45.1326C44.6017 45.0624 44.7074 44.9401 44.8131 44.8178C44.8131 44.8178 44.7988 44.8262 44.7952 44.8187C45.0899 44.7067 45.3881 44.6023 45.7531 44.5177C45.8881 44.591 45.9565 44.6445 46.0248 44.698C45.202 45.2088 44.3792 45.7197 43.4948 46.2836C43.3712 46.3882 43.3093 46.4398 43.2475 46.4914C43.2613 46.5188 43.2751 46.5462 43.2889 46.5736C43.4078 46.5265 43.5267 46.4793 43.6456 46.4321Z" fill="#F1F3F4"></path>
<path d="M68.4444 169.261C68.4644 169.234 68.4844 169.207 68.4723 169.141C69.0073 169.032 69.5742 168.959 70.1417 168.891C70.3665 168.864 70.5924 168.846 70.8961 168.882C71.828 168.86 72.6819 168.781 73.534 168.686C73.5695 168.682 73.5875 168.521 73.6136 168.434C74.2195 168.412 74.8253 168.388 75.4313 168.377C75.465 168.376 75.5006 168.48 75.5507 168.609C75.3737 168.696 75.1614 168.663 74.9943 168.736C74.8231 168.809 74.6961 168.986 74.5498 169.117C74.5498 169.117 74.5561 169.106 74.5606 169.111C73.8789 169.136 73.1908 169.131 72.5071 169.184C71.9759 169.224 71.4502 169.336 70.8562 169.39C70.4357 169.346 70.0811 169.325 69.7263 169.309C69.2991 169.291 68.8717 169.277 68.4444 169.261Z" fill="#F1F3F4"></path>
<path d="M100.621 172.898C100.518 173.047 100.441 173.15 100.353 173.313C100.29 173.337 100.195 173.299 100.195 173.264C100.214 172.292 100.233 171.32 100.278 170.35C100.284 170.218 100.426 170.093 100.649 170.012C100.649 170.959 100.649 171.906 100.621 172.898Z" fill="#F1F3F4"></path>
<path d="M75.1139 171.486C75.0714 171.421 75.0744 171.347 75.0745 171.219C75.4297 170.961 75.788 170.757 76.2134 170.571C76.2805 170.588 76.3172 170.633 76.3172 170.633C75.9313 170.915 75.5454 171.197 75.1139 171.486Z" fill="#F1F3F4"></path>
<path d="M13.3117 70.3431C13.1556 70.6658 12.9996 70.9884 12.8435 71.3111C12.7545 71.2595 12.6655 71.208 12.5765 71.1564C12.7714 70.8738 12.9663 70.5912 13.2206 70.3103C13.2801 70.3121 13.3117 70.3431 13.3117 70.3431Z" fill="#F1F3F4"></path>
<path d="M74.5113 171.237C74.23 171.41 73.8987 171.574 73.5162 171.737C73.7971 171.567 74.1292 171.398 74.5113 171.237Z" fill="#F1F3F4"></path>
<path d="M13.2642 70.2967C13.4334 69.9587 13.6186 69.6361 13.8037 69.3135C13.8725 69.3589 13.9412 69.4042 14.01 69.4496C13.8011 69.73 13.5922 70.0104 13.3475 70.317C13.3117 70.3431 13.2801 70.3121 13.2642 70.2967Z" fill="#F1F3F4"></path>
<path d="M98.5596 163.273C98.6176 163.153 98.6757 163.033 98.769 162.893C98.8992 162.871 98.9942 162.869 99.1368 162.868C99.1097 163.001 99.0349 163.135 98.8675 163.274C98.7031 163.278 98.6314 163.275 98.5596 163.273Z" fill="#F1F3F4"></path>
<path d="M12.1698 71.857C12.2682 71.6782 12.3665 71.4995 12.4649 71.3208C12.5254 71.3573 12.5858 71.3938 12.6462 71.4304C12.5442 71.5877 12.4421 71.7451 12.277 71.9014C12.2139 71.9004 12.1698 71.857 12.1698 71.857Z" fill="#F1F3F4"></path>
<path d="M14.1797 69.1426C14.0785 69.1846 14.0106 69.1933 13.9426 69.202C14.0152 69.0942 14.0877 68.9865 14.1603 68.8787C14.1779 68.9556 14.1955 69.0324 14.1797 69.1426Z" fill="#F1F3F4"></path>
<path d="M72.9158 171.943C72.8312 172.026 72.7212 172.081 72.5665 172.114C72.6446 172.033 72.7675 171.974 72.9158 171.943Z" fill="#F1F3F4"></path>
<path d="M73.4165 171.743C73.3938 171.826 73.3334 171.907 73.2317 171.97C73.2531 171.882 73.316 171.812 73.4165 171.743Z" fill="#F1F3F4"></path>
<path d="M76.262 170.565C76.3245 170.522 76.4054 170.501 76.4863 170.48C76.4548 170.522 76.4233 170.564 76.3545 170.619C76.3172 170.633 76.2805 170.588 76.262 170.565Z" fill="#F1F3F4"></path>
<path d="M82.0835 150.132C82.035 150.19 81.9539 150.223 81.8728 150.256C81.8861 150.207 81.8994 150.158 81.947 150.086C82.0045 150.078 82.0278 150.092 82.0835 150.132Z" fill="#F1F3F4"></path>
<path d="M12.2349 71.9231C12.2111 71.9615 12.1664 71.9773 12.1217 71.993C12.1197 71.9617 12.1177 71.9305 12.1427 71.8781C12.1698 71.857 12.2139 71.9004 12.2349 71.9231Z" fill="#F1F3F4"></path>
<path d="M99.2917 162.629C99.3138 162.655 99.3107 162.704 99.2698 162.767C99.2435 162.737 99.2549 162.695 99.2917 162.629Z" fill="#F1F3F4"></path>
<path d="M119.007 76.1707C119.681 75.1726 120.308 74.1999 120.973 73.2543C121.111 73.0577 121.391 72.9612 121.606 72.8186C121.703 73.0106 121.84 73.193 121.89 73.3966C122.032 73.9804 122.012 74.6287 122.692 74.9418C123.068 75.1151 123.463 75.2879 123.777 75.5482C124.312 75.992 124.786 76.5095 125.295 76.9848C125.42 77.1008 125.603 77.2733 125.728 77.2501C126.553 77.0968 127.027 77.8295 127.334 78.2202C127.863 78.8928 128.782 78.8716 129.225 79.6815C129.618 80.4021 130.412 80.8999 131.01 81.5143C131.446 81.9616 131.277 82.681 130.71 83.3843C130.176 84.0459 129.75 84.7935 129.222 85.4605C128.826 85.9605 128.36 86.4085 127.898 86.8517C126.677 88.025 125.451 89.1776 124.536 90.6402C124.075 91.3764 123.354 91.9479 122.762 92.604C122.276 93.143 121.807 93.697 121.284 94.2963C120.584 94.3155 120.241 93.8367 120.533 93.0878C120.746 92.5442 120.814 92.1916 120.167 91.7494C118.932 90.9056 117.842 89.8503 116.695 88.8797C115.35 87.7417 114.007 86.6014 112.665 85.4603C111.902 84.812 111.781 84.3508 112.471 83.4716C113.354 82.3463 114.403 81.3523 115.346 80.2716C116.36 79.1099 117.327 77.9082 118.33 76.7363C118.507 76.5283 118.756 76.381 119.007 76.1707Z" fill="#F1F3F4"></path>
<path d="M98.527 163.307C98.6314 163.275 98.7032 163.278 98.8286 163.286C98.41 164.32 97.9705 165.365 97.4577 166.373C96.7657 167.734 95.991 169.053 95.308 170.418C95.0816 170.87 95.0306 171.41 94.8955 171.909C94.8506 172.075 94.8318 172.267 94.7324 172.394C94.6049 172.556 94.4081 172.665 94.2412 172.796C94.1353 172.574 93.9102 172.333 93.9436 172.135C94.118 171.099 94.5471 170.172 95.1336 169.284C95.8913 168.137 96.5233 166.907 97.2149 165.715C97.3915 165.411 97.5886 165.119 97.8407 164.764C97.9345 164.608 97.9639 164.509 97.9933 164.411C98.1603 164.054 98.3274 163.697 98.527 163.307Z" fill="#F1F3F4"></path>
<path d="M97.9555 164.429C97.9639 164.509 97.9345 164.608 97.8664 164.721C97.8577 164.64 97.8877 164.544 97.9555 164.429Z" fill="#F1F3F4"></path>
<path d="M69.649 30.1453C71.7186 28.6629 73.7038 27.082 75.4015 25.1706C76.4623 23.9764 77.6895 22.8825 78.52 21.5438C79.4801 19.9964 80.5347 18.372 80.1495 16.3384C80.103 16.093 80.3112 15.6914 80.5269 15.5258C81.0356 15.1352 81.4233 15.3528 81.4133 15.9849C81.4011 16.7647 81.2762 17.5142 81.1044 18.2926C80.5584 20.767 78.9474 22.5025 77.3276 24.2244C75.8306 25.8158 74.3521 27.4524 72.4793 28.643C71.6483 29.1712 70.8231 29.7086 69.9138 30.2277C69.7712 30.1908 69.7101 30.1681 69.649 30.1453Z" fill="#F1F3F4"></path>
<path d="M46.0663 44.6752C45.9565 44.6445 45.8881 44.591 45.8006 44.5096C48.6126 42.8342 51.4436 41.1866 54.3545 39.5447C54.4623 39.5909 54.4903 39.6314 54.5182 39.6718C54.0812 39.94 53.6451 40.2097 53.207 40.476C51.5362 41.4915 49.8703 42.515 48.191 43.516C47.512 43.9207 46.803 44.2752 46.0663 44.6752Z" fill="#F1F3F4"></path>
<path d="M54.5681 39.6724C54.4903 39.6314 54.4623 39.5909 54.4006 39.5336C55.3914 38.8813 56.4125 38.2402 57.4413 37.6118C58.6219 36.8909 59.8089 36.1805 60.9951 35.469C61.0474 35.4376 61.1202 35.4404 61.228 35.4712C61.2752 35.5758 61.2778 35.6366 61.2804 35.6973C60.0134 36.478 58.7533 37.2704 57.4769 38.0354C56.535 38.5998 55.5717 39.1285 54.5681 39.6724Z" fill="#F1F3F4"></path>
<path d="M69.613 30.1713C69.7101 30.1681 69.7712 30.1908 69.8638 30.2262C68.9026 31.372 67.5044 31.933 66.2457 32.7509C66.1356 32.6883 66.0894 32.6555 66.0432 32.6227C66.9904 31.967 67.937 31.3104 68.8852 30.6562C69.113 30.4991 69.3463 30.35 69.613 30.1713Z" fill="#F1F3F4"></path>
<path d="M66.0019 32.6448C66.0894 32.6555 66.1356 32.6883 66.1997 32.7604C65.0052 33.4948 63.7927 34.1899 62.5095 34.8647C62.4387 34.8444 62.3985 34.7985 62.3985 34.7985C63.5859 34.088 64.7733 33.3775 66.0019 32.6448Z" fill="#F1F3F4"></path>
<path d="M61.3268 35.6832C61.2778 35.6366 61.2752 35.5758 61.2766 35.4695C61.6269 35.2327 61.9733 35.0414 62.3591 34.8243C62.3985 34.7985 62.4387 34.8444 62.4584 34.8677C62.1098 35.1504 61.7415 35.4098 61.3268 35.6832Z" fill="#F1F3F4"></path>
<path d="M56.7319 169.903C55.4315 169.687 54.1314 169.47 52.8306 169.257C52.0315 169.127 51.2241 169.037 50.4331 168.869C48.8339 168.53 47.237 168.175 45.6514 167.778C44.7035 167.54 43.7645 167.249 42.8472 166.912C41.5988 166.454 40.3707 165.938 39.1418 165.428C37.8551 164.894 36.5872 164.314 35.2937 163.798C33.9363 163.256 32.5734 162.72 31.1858 162.263C28.9074 161.514 26.6198 160.786 24.3097 160.144C23.4398 159.902 22.4982 159.9 21.586 159.833C20.1045 159.724 18.6211 159.623 17.1368 159.58C16.7244 159.568 16.3084 159.787 15.8892 159.878C15.4928 159.964 15.0918 160.04 14.6888 160.075C14.5823 160.084 14.3897 159.94 14.3662 159.837C14.3408 159.725 14.4384 159.553 14.5316 159.452C15.0478 158.898 15.7796 158.947 16.4234 158.914C17.8587 158.841 19.3028 158.839 20.7387 158.907C22.037 158.967 23.3518 159.051 24.6184 159.319C26.1954 159.652 27.7349 160.169 29.2816 160.637C30.0711 160.875 30.8443 161.169 31.6191 161.454C32.7064 161.853 33.799 162.24 34.87 162.68C36.0476 163.163 37.1941 163.722 38.3713 164.207C39.7099 164.758 41.0664 165.266 42.417 165.788C43.7196 166.291 45.01 166.832 46.3335 167.273C47.2033 167.563 48.1193 167.719 49.0199 167.909C50.028 168.122 51.0438 168.299 52.0529 168.507C52.517 168.604 52.9708 168.748 53.4333 168.853C53.7059 168.915 53.9865 168.942 54.3335 169.043C54.6209 169.069 54.8385 169.037 55.056 169.005C55.2784 169.042 55.5008 169.08 55.7833 169.167C55.9287 169.231 56.014 169.244 56.0993 169.257C56.8118 169.347 57.5243 169.438 58.3105 169.59C58.8882 169.69 59.3947 169.709 59.8951 169.774C60.0958 169.801 60.2831 169.929 60.4765 170.011C60.4171 170.018 60.3577 170.025 60.2368 169.993C60.1024 169.973 60.0294 169.992 59.9565 170.012C59.3679 170.019 58.7793 170.026 58.1387 169.967C58.001 169.9 57.9154 169.899 57.8297 169.899C57.4991 169.903 57.1685 169.908 56.7797 169.908C56.7215 169.903 56.7319 169.903 56.7319 169.903Z" fill="#F1F3F4"></path>
<path d="M60.5316 170.029C60.2831 169.929 60.0958 169.801 59.8951 169.774C59.3947 169.709 58.8882 169.69 58.368 169.603C59.6378 169.584 60.9238 169.642 62.2096 169.636C63.4524 169.631 64.6949 169.559 66 169.578C66.0601 169.733 66.0576 169.825 66.055 169.918C65.9866 169.963 65.9184 170.045 65.8498 170.046C64.0955 170.052 62.341 170.049 60.5316 170.029Z" fill="#F1F3F4"></path>
<path d="M68.3949 169.251C68.8717 169.277 69.2991 169.291 69.7263 169.309C70.0811 169.325 70.4357 169.346 70.8037 169.413C69.4239 169.578 68.0307 169.694 66.6375 169.81C66.6289 169.728 66.6202 169.647 66.6116 169.565C67.1896 169.457 67.7675 169.349 68.3949 169.251Z" fill="#F1F3F4"></path>
<path d="M55.0089 168.993C54.8385 169.037 54.6209 169.069 54.3903 169.053C54.5721 168.997 54.767 168.989 55.0089 168.993Z" fill="#F1F3F4"></path>
<path d="M66.119 169.919C66.0576 169.826 66.0601 169.733 66.061 169.593C66.2351 169.547 66.411 169.547 66.5868 169.547C66.6037 169.605 66.6205 169.664 66.6374 169.722C66.486 169.788 66.3345 169.854 66.119 169.919Z" fill="#F1F3F4"></path>
<path d="M59.9746 170.036C60.0294 169.992 60.1024 169.973 60.1919 169.982C60.1367 170.028 60.0647 170.044 59.9746 170.036Z" fill="#F1F3F4"></path>
<path d="M10.2414 89.1381C10.4727 88.3773 10.6637 87.6012 10.9438 86.8588C11.5373 85.286 12.1691 83.7274 12.8041 82.1707C12.9647 81.7771 13.1538 81.3796 13.4108 81.0463C13.5842 80.8213 13.8996 80.7059 14.2577 80.6439C12.5097 83.3428 11.6255 86.3545 10.5192 89.3333C10.3906 89.2942 10.316 89.2161 10.2414 89.1381Z" fill="#F1F3F4"></path>
<path d="M9.8426 90.8544C9.9204 90.5331 9.99821 90.2117 10.076 89.8904C10.1476 89.9054 10.2192 89.9204 10.2907 89.9354C10.4374 90.323 10.4492 90.692 9.99055 90.9663C9.90594 90.8941 9.87818 90.8698 9.8426 90.8544Z" fill="#F1F3F4"></path>
<path d="M10.2028 89.1617C10.316 89.2161 10.3906 89.2942 10.4979 89.3799C10.487 89.5555 10.4434 89.7233 10.3679 89.8542C10.262 89.7215 10.1881 89.6257 10.1142 89.5298C10.1309 89.415 10.1476 89.3001 10.2028 89.1617Z" fill="#F1F3F4"></path>
<path d="M10.1024 89.585C10.1881 89.6257 10.262 89.7215 10.3171 89.8723C10.2291 89.8315 10.1598 89.7358 10.1024 89.585Z" fill="#F1F3F4"></path>
<path d="M9.83542 90.8907C9.87818 90.8698 9.90594 90.8941 9.93665 90.9532C9.90769 90.9617 9.86797 90.9443 9.83542 90.8907Z" fill="#F1F3F4"></path>
</svg><style>@media (prefers-color-scheme: light) { :root { filter: contrast(1) brightness(0.6); } }
</style></svg>