<svg width="48" height="60" viewBox="0 0 48 60" fill="none" xmlns="http://www.w3.org/2000/svg">
<path d="M46.7216 10.307C46.2803 9.26332 45.5461 8.38066 44.6214 7.75453C43.6967 7.13016 42.5706 6.76207 41.3731 6.76207H36.3743V5.89969H29.1288C29.1618 5.66531 29.1802 5.42355 29.1802 5.18004C29.1801 2.32359 26.8565 0 24 0C21.1436 0 18.82 2.32359 18.82 5.18004C18.82 5.42355 18.8383 5.66531 18.8713 5.89969H11.6258V6.76207H6.62697C5.82857 6.76207 5.06146 6.92508 4.36748 7.2198C3.3238 7.66113 2.43939 8.39531 1.81314 9.32004C1.18876 10.2465 0.820679 11.3708 0.820679 12.5684V54.1956C0.820679 54.9902 0.983687 55.7593 1.27841 56.4551C1.71974 57.4988 2.45392 58.3814 3.37865 59.0075C4.30513 59.6338 5.42943 60 6.62697 60H41.3731C42.1696 60 42.9386 59.8389 43.6326 59.5423C44.6781 59.1028 45.5606 58.3668 46.1869 57.442C46.8113 56.5173 47.1794 55.3912 47.1794 54.1956V12.5684C47.1794 11.7701 47.0182 11.0029 46.7216 10.307ZM24 3.25746C25.0602 3.25746 25.9226 4.11984 25.9226 5.18004C25.9226 5.43457 25.8713 5.67621 25.7816 5.89969H22.2202C22.1286 5.67633 22.0773 5.43457 22.0773 5.18004C22.0774 4.11984 22.9417 3.25746 24 3.25746ZM43.726 54.1956C43.726 54.5252 43.66 54.8291 43.541 55.1093C43.3653 55.5286 43.0649 55.8912 42.6878 56.1475C42.3106 56.4001 41.8675 56.5466 41.3731 56.5466H6.62697C6.29732 56.5466 5.99158 56.4806 5.71138 56.3634C5.29021 56.1858 4.92951 55.8837 4.67498 55.5083C4.42232 55.1311 4.27584 54.688 4.27396 54.1955V12.5684C4.27396 12.2387 4.33994 11.933 4.45888 11.6528C4.63654 11.2316 4.93677 10.869 5.31212 10.6164C5.68935 10.3637 6.13244 10.2172 6.62685 10.2154H11.6256V10.935C11.6256 12.2863 12.7206 13.3813 14.0738 13.3813H33.9279C35.2792 13.3813 36.3742 12.2863 36.3742 10.935V10.2154H41.3729C41.7026 10.2154 42.0083 10.2813 42.2885 10.4003C42.7078 10.5761 43.0704 10.8764 43.3249 11.2535C43.5795 11.6306 43.726 12.0738 43.726 12.5682V54.1956Z" fill="#990A0A"/>
<path d="M16.0038 20.0005H12.2977V23.7065H16.0038V20.0005Z" fill="#990A0A"/>
<path d="M35.7041 20.0005H20.4276V23.7065H35.7041V20.0005Z" fill="#990A0A"/>
<path d="M16.0038 30.9521H12.2977V34.6582H16.0038V30.9521Z" fill="#990A0A"/>
<path d="M35.7041 30.9521H20.4276V34.6582H35.7041V30.9521Z" fill="#990A0A"/>
<path d="M16.0038 41.9058H12.2977V45.6118H16.0038V41.9058Z" fill="#990A0A"/>
<path d="M35.7041 41.9058H20.4276V45.6118H35.7041V41.9058Z" fill="#990A0A"/>
</svg>
