<svg width="60" height="60" viewBox="0 0 60 60" fill="none" xmlns="http://www.w3.org/2000/svg">
<path d="M52.7216 10.307C52.2803 9.26332 51.5461 8.38066 50.6214 7.75453C49.6967 7.13016 48.5706 6.76207 47.3731 6.76207H42.3743V5.89969H35.1288C35.1618 5.66531 35.1802 5.42355 35.1802 5.18004C35.1801 2.32359 32.8565 0 30 0C27.1436 0 24.82 2.32359 24.82 5.18004C24.82 5.42355 24.8383 5.66531 24.8713 5.89969H17.6258V6.76207H12.627C11.8286 6.76207 11.0615 6.92508 10.3675 7.2198C9.3238 7.66113 8.43939 8.39531 7.81314 9.32004C7.18876 10.2465 6.82068 11.3708 6.82068 12.5684V54.1956C6.82068 54.9902 6.98369 55.7593 7.27841 56.4551C7.71974 57.4987 8.45392 58.3814 9.37865 59.0075C10.3051 59.6338 11.4294 60 12.627 60H47.3731C48.1696 60 48.9386 59.8389 49.6326 59.5423C50.6781 59.1028 51.5606 58.3668 52.1869 57.442C52.8113 56.5173 53.1794 55.3913 53.1794 54.1956V12.5684C53.1794 11.7701 53.0182 11.0029 52.7216 10.307ZM30 3.25746C31.0602 3.25746 31.9226 4.11984 31.9226 5.18004C31.9226 5.43457 31.8713 5.67621 31.7816 5.89969H28.2202C28.1286 5.67633 28.0773 5.43457 28.0773 5.18004C28.0774 4.11984 28.9417 3.25746 30 3.25746ZM49.726 54.1956C49.726 54.5252 49.66 54.8291 49.541 55.1093C49.3652 55.5286 49.0649 55.8912 48.6878 56.1475C48.3106 56.4001 47.8675 56.5466 47.3731 56.5466H12.627C12.2973 56.5466 11.9916 56.4806 11.7114 56.3634C11.2902 56.1858 10.9295 55.8837 10.675 55.5083C10.4223 55.1311 10.2758 54.688 10.274 54.1955V12.5684C10.274 12.2387 10.3399 11.933 10.4589 11.6528C10.6365 11.2316 10.9368 10.869 11.3121 10.6164C11.6894 10.3637 12.1324 10.2172 12.6269 10.2154H17.6256V10.935C17.6256 12.2863 18.7206 13.3813 20.0738 13.3813H39.9279C41.2792 13.3813 42.3742 12.2863 42.3742 10.935V10.2154H47.3729C47.7026 10.2154 48.0083 10.2813 48.2885 10.4003C48.7078 10.5761 49.0704 10.8764 49.3249 11.2535C49.5795 11.6306 49.726 12.0738 49.726 12.5682V54.1956Z" fill="#990A0A"/>
<path d="M22.0038 20.0005H18.2977V23.7065H22.0038V20.0005Z" fill="white"/>
<path d="M41.7041 20.0005H26.4276V23.7065H41.7041V20.0005Z" fill="white"/>
<path d="M22.0038 30.9521H18.2977V34.6582H22.0038V30.9521Z" fill="white"/>
<path d="M41.7041 30.9521H26.4276V34.6582H41.7041V30.9521Z" fill="white"/>
<path d="M22.0038 41.9058H18.2977V45.6118H22.0038V41.9058Z" fill="white"/>
<path d="M41.7041 41.9058H26.4276V45.6118H41.7041V41.9058Z" fill="white"/>
</svg>
