<svg width="290" height="434" viewBox="0 0 290 434" fill="none" xmlns="http://www.w3.org/2000/svg">
<g clip-path="url(#clip0_273_168)">
<path d="M99.7748 434.269C98.8479 434.269 97.921 434.269 96.9487 434.193C96.5874 433.807 96.2846 433.482 95.9529 433.188C94.9231 432.276 94.0363 431.35 94.2886 429.793C94.6314 427.676 95.4383 425.736 97.0816 424.371C99.9373 421.998 102.959 419.814 105.937 417.583C106.6 417.086 107.165 416.634 106.939 415.705C106.15 412.46 106.988 409.29 107.61 406.157C108.017 404.103 108.938 402.138 109.703 400.16C110.47 398.176 111.192 396.158 112.18 394.278C113.5 391.766 115.038 389.361 116.52 386.932C117.294 385.661 118.085 384.391 118.978 383.198C120.565 381.079 122.204 378.994 123.88 376.94C125.502 374.952 127.124 372.954 128.878 371.078C131.61 368.156 134.402 365.283 137.269 362.487C139.194 360.609 141.221 358.814 143.332 357.138C145.623 355.319 148.014 353.609 150.455 351.985C152.518 350.613 154.715 349.432 156.948 348.15C157.845 347.563 158.647 346.991 159.527 346.392C159.67 346.279 159.736 346.194 159.801 346.11C159.633 346.152 159.465 346.194 159.195 346.247C158.349 346.671 157.604 347.084 156.752 347.51C156.363 347.569 156.081 347.616 155.695 347.645C154.901 347.971 154.21 348.315 153.52 348.671C153.519 348.682 153.497 348.676 153.419 348.672C153.21 348.811 153.079 348.953 152.863 349.116C152.663 349.135 152.546 349.135 152.378 349.077C152.069 349.14 151.814 349.26 151.514 349.473C149.634 350.306 147.81 351.073 145.963 351.782C142.737 353.019 139.697 354.533 137.064 356.797C136.245 357.502 135.433 359.036 133.807 357.493C134.248 357.029 134.615 356.403 135.168 356.104C138.551 354.269 141.954 352.466 145.398 350.743C146.953 349.966 148.617 349.397 150.292 348.76C150.558 348.7 150.763 348.613 151.068 348.536C151.588 348.356 152.008 348.166 152.502 347.985C152.725 347.877 152.873 347.759 153.12 347.615C153.88 347.335 154.542 347.08 155.31 346.814C156.491 346.301 157.567 345.798 158.642 345.295C158.624 345.243 158.606 345.191 158.587 345.139C157.052 345.594 155.517 346.049 153.883 346.504C152.965 346.807 152.146 347.11 151.275 347.39C151.05 347.441 150.877 347.516 150.591 347.57C149.02 347.897 147.566 348.266 146.102 348.586C143.916 349.064 141.698 349.42 139.537 349.984C136.384 350.807 133.268 351.763 130.14 352.675C128.92 353.03 127.711 353.422 126.498 353.798C124.932 354.284 123.344 354.713 121.807 355.272C120.388 355.788 119.035 356.471 117.633 357.033C115.213 358.003 112.67 358.74 110.373 359.933C107.276 361.542 104.293 363.389 101.395 365.324C99.0893 366.864 96.8695 368.568 94.8255 370.424C93.0488 372.037 91.6798 374.075 89.923 375.713C88.7891 376.77 88.1524 377.904 87.9326 379.356C87.8881 379.65 87.7039 379.922 87.5981 380.21C87.2506 381.153 86.6171 381.629 85.2187 381.434C85.3536 380.462 85.1642 379.322 85.6583 378.693C88.0523 375.643 90.4419 372.55 93.1996 369.825C95.5685 367.484 98.348 365.505 101.106 363.585C103.013 362.258 105.169 361.262 107.255 360.193C110.001 358.784 112.707 357.254 115.577 356.132C118.985 354.799 122.532 353.792 126.05 352.742C130.264 351.484 134.513 350.338 138.743 349.127C140.056 348.751 141.354 348.322 142.659 347.917C142.347 347.614 142.086 347.525 141.848 347.564C139.461 347.953 137.09 348.452 134.692 348.74C132.498 349.003 130.277 349.077 128.066 349.174C126.654 349.235 125.233 349.121 123.823 349.203C122.032 349.308 120.248 349.668 118.46 349.674C115.352 349.685 112.244 349.465 109.134 349.424C106.677 349.393 104.218 349.518 101.76 349.515C98.1143 349.51 94.469 349.454 90.8237 349.42C90.686 349.419 90.5483 349.41 90.4107 349.411C87.9332 349.437 85.4542 349.427 82.979 349.515C82.3396 349.538 81.5803 349.713 81.1058 350.092C80.1043 350.892 79.4979 350.412 78.8091 349.77C80.0069 348.105 81.3983 347.314 83.1306 347.398C88.2342 347.644 93.3372 347.301 98.4608 347.924C102.147 348.371 105.953 347.799 109.704 347.84C112.799 347.873 115.89 348.257 118.983 348.27C122.415 348.285 125.861 348.191 129.278 347.899C134.041 347.493 138.808 347.007 143.528 346.276C147.234 345.702 150.872 344.715 154.535 343.886C154.978 343.786 155.384 343.527 155.797 343.331C155.788 343.321 155.775 343.345 155.891 343.356C157.746 342.999 159.485 342.631 161.225 342.264C161.21 342.204 161.195 342.144 161.179 342.084C160.119 342.146 159.058 342.208 157.911 342.217C157.752 342.053 157.678 341.842 157.608 341.843C156.348 341.866 155.088 341.915 153.711 341.962C153.071 342.053 152.549 342.149 152.025 342.226C150.758 342.413 149.49 342.592 148.119 342.762C147.547 342.794 147.077 342.83 146.61 342.885C145.43 343.024 144.251 343.171 142.944 343.327C141.365 343.432 139.909 343.652 138.464 343.596C133.374 343.399 128.286 343.137 123.201 342.837C121.302 342.724 119.403 342.508 117.524 342.215C114.483 341.741 111.452 341.199 108.429 340.622C105.753 340.11 103.056 339.642 100.437 338.915C97.8392 338.193 95.3205 337.193 92.7809 336.278C88.7513 334.826 84.7265 333.361 80.7147 331.863C79.5325 331.422 78.404 330.845 77.2452 330.342C75.1822 329.448 73.086 328.621 71.0567 327.66C68.6053 326.498 66.217 325.21 63.7862 324.007C61.9978 323.121 60.0878 322.432 58.4027 321.392C54.5763 319.031 50.8093 316.571 47.1063 314.029C44.276 312.086 41.4918 310.059 38.8485 307.882C35.6541 305.252 32.6759 302.373 29.5175 299.699C27.0038 297.571 24.2421 295.66 20.9678 294.96C19.3265 294.61 19.465 293.984 19.7309 292.581C21.4147 293.177 22.9713 293.727 24.5279 294.278C24.627 294.105 24.7262 293.931 24.8254 293.758C23.4628 292.762 22.1496 291.692 20.7263 290.786C18.5033 289.372 16.4874 287.52 13.5611 287.464C13.1857 287.457 12.6921 286.763 12.5144 286.294C12.4272 286.063 12.931 285.326 13.1801 285.32C14.1475 285.296 15.1634 285.337 16.0798 285.612C17.2394 285.96 18.3197 286.56 19.4341 287.052C19.5027 286.949 19.5713 286.847 19.6399 286.745C19.3965 286.331 19.1564 285.915 18.9093 285.503C17.3642 282.927 15.6755 280.421 14.307 277.758C12.5735 274.385 10.938 270.945 9.55756 267.424C8.02816 263.522 6.828 259.497 5.49939 255.521C5.20884 254.651 4.95118 253.769 4.73081 252.88C4.15116 250.542 3.55419 248.206 3.05124 245.852C2.55816 243.544 2.17934 241.213 1.73452 238.895C1.63009 238.351 1.48999 237.809 1.30258 237.288C1.25749 237.162 0.95817 237.124 0.775764 237.045C0.775765 228.34 0.775765 219.635 0.883431 210.789C1.05325 209.505 1.11611 208.36 1.16092 207.214C1.16119 207.207 0.909693 207.191 0.775764 207.179C0.775765 206.364 0.775765 205.548 0.842046 204.725C1.11419 204.431 1.32005 204.145 1.52385 203.745C1.93062 200.39 2.21803 197.13 2.78362 193.916C3.31262 190.91 3.96365 187.902 4.87123 184.987C6.2395 180.592 7.8238 176.258 9.42171 171.936C10.3537 169.414 11.5421 166.984 12.5214 164.479C13.4771 162.033 14.3285 159.548 15.1959 157.071C15.6027 155.909 15.8826 154.703 16.3217 153.554C16.9755 151.843 17.7683 150.182 18.4128 148.468C19.2485 146.245 19.8193 143.911 20.8252 141.769C22.2193 138.799 23.3388 135.8 23.6276 132.528C23.7018 131.687 24.1154 131.085 25.3367 131.395C25.2567 132.222 25.3035 133.086 25.0678 133.87C24.686 135.14 24.1103 136.353 23.6316 137.596C22.2511 141.18 20.8662 144.763 19.5106 148.357C19.1743 149.248 18.9427 150.178 18.6629 151.09C18.7959 151.137 18.9288 151.185 19.0617 151.232C19.5939 149.904 20.1354 148.578 20.6532 147.244C20.8249 146.802 20.8745 146.308 21.0862 145.888C21.6589 144.753 22.3137 143.658 22.8905 142.524C24.0784 140.191 25.2461 137.847 26.4047 135.5C27.8166 132.639 29.2485 129.786 30.6026 126.899C32.2466 123.394 33.7995 119.849 35.4287 116.337C36.4287 114.182 37.7223 112.13 38.4816 109.901C39.5396 106.795 40.1964 103.561 41.0852 100.397C41.2586 99.7804 41.7072 99.2371 42.0288 98.6598C42.1912 98.6759 42.3536 98.692 42.516 98.7081C42.764 99.5646 43.3402 100.478 43.1978 101.267C42.7837 103.562 42.2764 105.879 41.4397 108.053C40.5414 110.387 39.1957 112.555 38.1055 114.823C37.2897 116.52 36.6055 118.277 35.7979 119.979C34.754 122.178 33.6263 124.339 32.5737 126.534C32.1062 127.509 31.7962 128.557 31.3065 129.52C29.9712 132.145 28.5646 134.735 27.2145 137.353C26.6299 138.486 26.1645 139.68 25.5575 140.801C24.3275 143.072 22.9464 145.27 21.8076 147.583C21.1435 148.932 20.8374 150.447 20.3496 151.88C20.1893 152.351 19.9645 152.801 19.7692 153.261C20.5974 152.565 21.2089 151.784 21.7257 150.948C22.7671 149.263 23.6988 147.511 24.787 145.857C25.606 144.611 26.651 143.509 27.5031 142.283C29.3997 139.552 31.188 136.75 33.118 134.043C34.4455 132.18 35.9387 130.431 37.3544 128.629C39.013 126.517 40.6628 124.399 42.3259 122.291C43.7651 120.467 45.1322 118.58 46.6821 116.849C49.7004 113.479 52.8687 110.237 55.8889 106.869C57.9535 104.566 59.8676 102.136 61.858 99.7694C63.6014 97.6971 65.4098 95.6746 67.0928 93.557C68.7023 91.5316 70.1808 89.4075 71.7303 87.3362C72.267 86.6187 72.9302 85.979 73.3858 85.2183C74.7047 83.0158 76.0443 80.8163 77.1957 78.5293C78.6503 75.6403 80.1239 72.7331 81.2092 69.7041C81.8924 67.7974 81.8793 65.6531 82.1754 63.6371C83.4498 63.5693 84.4436 64.3051 84.2936 65.3266C84.0747 66.8167 83.8351 68.3555 83.2539 69.7328C81.9313 72.867 80.5353 75.9879 78.9079 78.9788C77.1905 82.1352 75.2306 85.1724 73.256 88.1864C72.2566 89.7117 71.0078 91.084 69.8425 92.5028C66.9117 96.0714 64.0276 99.6793 61.003 103.171C58.6569 105.879 56.1117 108.423 53.6827 111.064C50.9032 114.086 48.1362 117.119 45.3999 120.179C44.075 121.66 42.8189 123.201 41.572 124.746C41.4313 124.92 41.5529 125.296 41.5529 125.578C41.6718 125.667 41.7906 125.756 41.9094 125.844C42.5812 125.092 43.2308 124.32 43.929 123.592C45.822 121.619 47.6282 119.55 49.6651 117.728C53.1564 114.604 56.8082 111.652 60.3715 108.604C63.1455 106.232 65.8774 103.813 68.6462 101.434C71.4875 98.9938 74.4525 96.6811 77.1799 94.126C80.9983 90.5489 84.6614 86.8129 88.3632 83.1184C90.8581 80.6285 93.3496 78.1326 95.7613 75.5667C98.1621 73.0124 100.522 70.4159 102.785 67.7455C104.392 65.8487 106.035 63.9215 107.259 61.7878C109.095 58.5876 110.603 55.2064 112.203 51.88C113.685 48.7974 114.281 45.5427 113.503 42.2012C112.587 38.262 111.473 34.3794 108.903 31.057C107.881 29.7363 108.148 28.9462 109.693 28.0895C110.647 27.5606 112.031 27.3885 112.567 26.6208C113.236 25.6621 114.136 25.5167 114.991 25.138C116.5 24.4693 118.09 23.9704 119.575 23.2575C121.633 22.2689 123.642 21.1783 125.639 20.0743C127.127 19.2517 128.567 18.345 130.021 17.4637C131.142 16.7839 132.253 16.0871 133.366 15.3947C135.018 14.3673 136.797 13.4841 138.272 12.2546C139.198 11.4833 140.084 10.2452 140.24 9.11784C140.464 7.50523 141.001 5.59317 139.09 4.29121C140.213 3.51996 141.263 2.9068 142.172 2.13443C142.762 1.6327 143.145 0.898879 143.621 0.269043C144.275 0.269043 144.929 0.269043 145.712 0.367119C146.187 0.910386 146.756 1.31953 146.838 1.80705C147.185 3.85288 147 5.88183 145.483 7.47343C143.763 9.27794 142.325 11.3729 139.971 12.5628C139.086 13.0102 138.321 13.7329 137.602 14.4285C137.056 14.9565 136.652 15.6051 137.321 16.4C137.827 17.0017 138.391 17.6341 138.642 18.3488C139.541 20.9012 140.461 23.4612 141.099 26.082C141.73 28.6782 141.99 31.3582 142.483 33.9891C143.209 37.8638 141.727 41.5377 140.831 45.0914C139.974 48.4888 137.474 51.5363 135.473 54.5992C134.033 56.8042 132.296 58.8383 130.566 60.8461C128.597 63.1318 126.63 65.449 124.407 67.4888C121.462 70.1924 118.273 72.6447 115.181 75.1956C114.27 75.9476 113.36 76.7065 112.397 77.393C111.183 78.2593 109.893 79.0248 108.679 79.891C107.838 80.4909 107.085 81.207 106.266 81.8371C104.544 83.1609 102.808 84.4674 101.07 85.771C99.8923 86.6541 98.6939 87.5107 97.5186 88.3966C96.305 89.3114 95.1081 90.2473 93.9112 91.1893C93.9186 91.2046 93.9483 91.1875 93.8546 91.178C93.5516 91.3485 93.3424 91.5285 93.1312 91.7146C93.1292 91.7206 93.1162 91.7221 93.0292 91.6687C92.7079 91.7403 92.4737 91.8654 92.1431 91.9832C91.587 92.3648 91.1274 92.7537 90.5705 93.1547C89.2357 93.9512 87.9982 94.7355 86.6626 95.5168C85.9052 95.9396 85.2459 96.3656 84.5866 96.7915C84.6547 96.9161 84.7227 97.0406 84.7908 97.1652C85.9891 96.8608 87.2224 96.6477 88.3764 96.2275C89.652 95.7631 90.855 95.109 92.1775 94.4921C93.7073 93.8808 95.1341 93.2745 96.5942 92.7576C99.6701 91.6686 102.695 90.3384 105.864 89.6254C112.309 88.1751 118.845 87.1118 125.325 85.8024C128.792 85.102 132.262 84.6251 135.808 84.7426C136.248 84.7572 136.691 84.6071 137.135 84.5556C138.928 84.348 140.719 84.1163 142.516 83.9602C143.479 83.8766 144.455 83.9507 145.424 83.9142C146.877 83.8595 148.339 83.6214 149.778 83.7246C153.52 83.9931 157.253 84.3933 160.986 84.7661C162.234 84.8908 163.48 85.0578 164.717 85.2644C167.849 85.7875 170.979 86.3253 174.102 86.8931C176.628 87.3521 179.169 87.7632 181.654 88.3841C183.546 88.8568 185.363 89.6148 187.207 90.2649C189.854 91.1985 192.529 92.0693 195.126 93.1223C196.727 93.7713 198.204 94.7087 199.736 95.518C201.505 96.4522 203.272 97.3879 205.056 98.3314C205.767 97.8642 206.683 97.4796 207.288 96.8226C209.042 94.9207 210.644 92.8878 212.356 90.948C213.662 89.4671 215.012 88.0192 216.4 86.6113C218.643 84.3379 220.786 81.9407 223.242 79.9073C225.977 77.6431 228.978 75.6763 231.936 73.6818C233.38 72.7075 234.898 71.634 236.546 71.2033C238.429 70.7115 240.188 69.7825 242.301 69.8547C244.482 69.9292 246.69 69.1654 248.877 69.2118C251.414 69.2656 253.936 69.8289 256.472 70.1143C257.349 70.2131 258.507 70.4915 259.084 70.0814C260.634 68.9803 261.924 67.5353 263.346 66.2581C264.554 65.1736 265.8 64.044 267.624 64.3915C268.246 64.5099 269.056 64.8664 269.31 65.3493C269.635 65.9698 270.028 66.7599 268.918 67.4958C267.824 68.2209 267.124 69.4955 266.191 70.4741C265.558 71.1382 264.966 71.734 263.792 71.0693C262.841 70.5307 261.589 70.5027 260.661 71.3965C259.748 72.2762 258.851 73.182 258.045 74.1543C255.999 76.623 254.012 79.138 251.995 81.6293C248.401 86.0682 244.83 90.5253 241.184 94.9238C240.328 95.9572 239.213 96.7872 238.305 97.6297C237.275 96.8578 236.423 96.097 235.455 95.5181C233.312 94.235 230.868 93.6372 228.426 93.6087C223.417 93.5501 218.475 93.9844 214.045 96.7369C212.37 97.7776 210.231 98.1875 208.723 99.3867C205.896 101.634 203.254 104.137 200.761 106.74C198.234 109.378 195.953 112.243 193.618 115.051C192.218 116.735 190.911 118.495 189.58 120.233C188.913 121.102 188.35 122.054 187.627 122.873C186.077 124.629 184.492 126.359 182.842 128.024C182.26 128.612 181.447 128.982 180.74 129.452C180.665 129.377 180.591 129.303 180.517 129.228C180.633 128.829 180.749 128.43 180.859 128.048C171.745 120.429 161.069 115.883 149.503 112.511C149.665 112.965 149.79 113.158 149.796 113.355C149.827 114.52 149.926 115.698 149.775 116.843C149.737 117.131 148.799 117.579 148.399 117.48C147.899 117.356 147.472 116.933 147.917 116.07C148.212 115.496 147.947 114.353 147.509 113.766C145.728 111.381 142.775 111.712 140.489 111.969C136.951 112.368 133.318 113.002 130.029 114.648C128.309 115.508 126.485 116.175 124.782 117.064C124.289 117.322 123.785 118.029 123.748 118.562C123.618 120.387 123.658 122.226 123.702 124.059C123.739 125.618 123.943 127.174 123.951 128.732C123.983 135.12 123.968 141.507 123.97 147.895C123.971 150.075 123.97 152.255 123.97 154.618C124.611 154.342 125.028 154.179 125.432 153.986C128.134 152.695 131.006 151.648 133.481 150.026C135.56 148.663 137.223 146.671 138.969 144.863C139.559 144.252 140.051 143.391 140.2 142.577C140.354 141.733 140.085 140.799 139.911 139.921C139.801 139.367 139.22 138.686 139.404 138.349C139.63 137.934 140.41 137.711 140.99 137.595C142.215 137.349 143.469 137.241 144.706 137.05C146.766 136.733 147.743 137.451 147.996 139.47C148.027 139.721 148.122 139.988 148.263 140.199C149.833 142.551 152.366 143.715 154.839 144.68C158.174 145.983 161.714 145.122 165.132 144.642C167.048 144.373 168.945 143.789 170.773 143.14C173.471 142.182 176.136 141.117 178.744 139.946C180.183 139.299 181.552 138.44 182.817 137.503C185.08 135.827 187.501 134.296 189.018 131.823C189.611 130.856 190.316 129.955 190.969 129.025C191.134 129.129 191.299 129.233 191.464 129.337C189.517 134.151 186.588 138.417 183.297 142.657C184.754 142.892 186.1 142.888 187.446 142.893C189.465 142.9 191.484 142.941 193.503 142.911C194.729 142.893 195.97 142.869 197.175 142.671C200.945 142.052 204.423 140.659 207.603 138.597C208.652 137.917 209.632 137.123 210.578 136.308C211.189 135.781 211.681 135.122 212.226 134.521C212.377 134.606 212.528 134.691 212.679 134.776C212.726 135.1 212.913 135.486 212.797 135.738C211.442 138.664 208.32 139.725 205.901 141.864C208.223 141.552 210.359 141.338 212.466 140.965C216.582 140.237 220.685 139.436 224.788 138.635C228.249 137.959 231.705 137.251 235.158 136.534C236.743 136.205 238.298 135.71 239.896 135.481C245.443 134.686 250.671 133.059 255.106 129.636C256.752 128.365 258.039 126.663 257.857 124.299C257.812 123.715 258.228 122.838 258.719 122.528C259.709 121.904 260.899 121.583 262.002 121.128C263.633 120.455 265.252 119.751 266.9 119.118C267.22 118.995 267.785 119.001 267.985 119.195C268.188 119.392 268.165 119.913 268.089 120.261C267.917 121.049 267.62 121.811 267.431 122.597C267.048 124.196 267.05 125.992 266.265 127.366C265 129.583 264.208 132.181 261.805 133.59C264.601 134.138 267.312 134.57 269.97 135.212C273.821 136.142 277.675 137.101 281.449 138.286C283.63 138.971 285.65 140.138 287.754 141.063C288.408 141.35 289.101 141.554 289.776 141.797C289.776 142.17 289.776 142.544 289.674 143.028C287.341 142.323 285.102 141.527 282.882 140.685C281.931 140.324 281.05 139.761 280.08 139.478C278.356 138.975 276.605 138.533 274.837 138.214C271.857 137.677 268.869 137.095 265.857 136.834C263.2 136.603 260.5 136.684 257.828 136.819C256.171 136.904 254.514 137.273 252.889 137.645C250.564 138.178 248.273 138.853 245.957 139.428C243.137 140.127 240.307 140.787 237.481 141.464C239.676 141.97 241.803 142.16 243.928 142.366C244.237 142.396 244.544 142.484 244.84 142.58C245.637 142.837 246.183 143.394 245.807 144.179C245.394 145.04 244.577 144.552 243.912 144.388C242.625 144.07 241.312 143.392 240.061 143.489C236.011 143.801 231.98 144.365 227.951 144.893C225.025 145.277 222.087 145.642 219.2 146.229C216.179 146.843 213.213 147.719 210.22 148.469C207.6 149.125 204.983 149.796 202.351 150.405C197.355 151.561 192.35 152.677 187.65 153.742C188.591 153.947 189.838 154.132 191.012 154.525C191.37 154.645 191.527 155.337 191.775 155.767C191.188 156.033 190.239 156.664 190.072 156.506C188.767 155.274 187.086 155.78 185.645 155.591C183.651 155.33 181.566 155.615 179.531 155.795C178.068 155.925 176.613 156.216 175.175 156.526C173.247 156.942 171.348 157.489 169.419 157.902C166.713 158.48 163.989 158.976 161.278 159.531C160.676 159.655 160.094 159.877 159.506 160.063C158.758 160.3 158.014 160.546 157.268 160.787C157.309 160.992 157.351 161.196 157.392 161.4C159.592 161.4 161.793 161.373 163.992 161.41C165.282 161.432 166.588 161.45 167.854 161.659C170.065 162.025 172.245 162.564 174.448 162.982C176.881 163.443 179.346 163.762 181.758 164.31C183.506 164.707 185.187 165.385 186.903 165.919C188.694 166.476 190.504 166.977 192.28 167.573C192.868 167.77 193.357 168.232 193.931 168.488C196.826 169.778 199.829 170.87 202.614 172.355C206.161 174.246 209.62 176.324 212.951 178.558C215.064 179.976 216.954 181.743 218.799 183.499C220.919 185.517 223.02 187.584 224.872 189.832C227.217 192.676 229.354 195.69 231.481 198.698C232.702 200.425 233.77 202.262 234.825 204.096C235.751 205.706 236.573 207.375 237.421 209.027C238.399 210.934 239.528 212.79 240.281 214.779C241.332 217.553 242.22 220.401 242.95 223.273C243.78 226.537 244.822 229.762 245.091 233.155C245.257 235.253 245.846 237.333 245.865 239.425C245.916 244.829 245.765 250.235 245.667 255.639C245.654 256.346 245.489 257.052 245.375 257.755C245.172 259.016 244.942 260.272 244.749 261.534C244.682 261.974 244.762 262.442 244.651 262.867C244.036 265.245 243.441 267.63 242.727 269.981C241.789 273.075 240.857 276.178 239.719 279.205C238.536 282.351 237.122 285.416 235.789 288.508C234.301 291.96 232.927 295.469 231.245 298.83C229.968 301.382 228.274 303.733 226.789 306.187C225.052 309.056 223.273 311.903 221.641 314.828C220.384 317.082 219.264 319.414 218.194 321.76C216.934 324.526 215.676 327.303 214.639 330.153C213.818 332.408 213.239 334.759 212.726 337.104C212.236 339.337 212.056 341.634 211.587 343.873C210.945 346.937 211.237 350.022 211.891 352.953C212.471 355.554 213.815 358.045 215.131 360.421C216.034 362.052 217.339 363.52 219.222 364.319C219.463 364.421 219.674 365.044 219.58 365.325C219.47 365.658 219.05 366.05 218.701 366.123C216.953 366.487 216.036 365.166 215.155 364.128C213.587 362.282 212.22 360.29 211.673 357.858C211.164 355.592 210.513 353.357 209.982 351.015C210.038 349.001 210.038 347.08 210.038 345.16C209.575 345.324 209.28 345.579 209.267 345.845C209.174 347.814 209.133 349.785 209.096 351.756C209.094 351.828 209.293 351.905 209.428 352.094C209.511 352.872 209.471 353.558 209.632 354.195C210.251 356.645 211.039 359.059 211.563 361.527C212.069 363.908 213.66 365.671 214.964 367.56C216.075 369.17 216.29 369.511 215.357 371.224C214.754 372.331 214.329 373.533 213.857 374.705C213.481 375.638 213.154 376.59 212.806 377.534C212.591 377.572 212.376 377.609 212.161 377.647C211.292 376.382 210.343 375.16 209.586 373.834C209.147 373.066 209.054 372.117 207.859 372.06C207.669 372.051 207.507 371.724 207.309 371.573C205.871 370.469 206.112 368.709 205.835 367.293C205.095 363.498 204.519 359.632 204.381 355.778C204.265 352.53 204.775 349.25 205.158 346.001C205.468 343.365 205.753 340.685 206.494 338.148C207.66 334.154 209.206 330.265 210.569 326.325C210.664 326.052 210.582 325.721 210.582 325.417C210.493 325.399 210.404 325.38 210.315 325.362C209.299 326.953 208.284 328.544 207.217 330.182C207.14 330.315 207.117 330.402 207.081 330.54C207.069 330.591 206.994 330.668 206.895 330.667C206.598 330.67 206.401 330.673 206.207 330.579C205.627 330.229 205.532 330.349 204.982 331.117C203.677 332.942 202.327 334.739 200.962 336.523C200.317 337.366 199.574 338.137 198.915 338.971C198.28 339.773 197.712 340.626 197.084 341.435C195.68 343.244 194.003 344.904 192.902 346.872C191.308 349.721 190.485 352.891 189.87 356.099C189.781 356.564 189.126 357.113 188.619 357.27C187.849 357.508 187.594 356.9 187.668 356.222C187.734 355.622 187.801 355.016 187.952 354.433C188.149 353.668 188.514 352.938 188.658 352.166C189.383 348.281 191.473 345.051 193.853 341.997C195.763 339.547 197.871 337.243 199.972 334.839C200.879 334.037 201.73 333.285 201.944 332.155C201.799 332.059 201.654 331.963 201.509 331.866C200.848 332.794 200.187 333.721 199.426 334.645C198.646 335.167 197.921 335.645 197.296 336.226C196.315 337.138 195.448 338.169 194.45 339.062C192.12 341.144 189.707 343.139 187.397 345.242C186.263 346.275 185.319 347.506 184.225 348.584C182.892 349.899 181.373 351.05 180.145 352.448C178.052 354.831 176.049 357.299 174.145 359.829C172.208 362.404 170.418 365.084 168.606 367.746C168.173 368.383 167.908 369.13 167.572 369.829C166.927 371.17 166.276 372.507 165.65 373.856C165.362 374.477 165.164 375.139 164.851 375.747C164.73 375.982 164.309 376.314 164.19 376.26C163.906 376.13 163.628 375.83 163.512 375.537C163.11 374.52 163.693 373.762 164.163 372.877C165.131 371.056 165.647 368.988 166.726 367.245C168.34 364.638 170.218 362.178 172.096 359.738C174.127 357.098 176.233 354.509 178.414 351.986C179.469 350.766 180.781 349.758 181.958 348.636C184.582 346.138 187.16 343.594 189.824 341.137C191.181 339.885 192.716 338.817 194.105 337.594C194.703 337.068 195.135 336.363 195.642 335.74C195.536 335.635 195.429 335.531 195.322 335.427C193.857 336.497 192.388 337.564 190.927 338.64C188.027 340.776 185.119 342.904 182.235 345.062C180.139 346.631 177.992 348.15 176.025 349.864C174.327 351.343 172.82 353.036 171.289 354.687C169.679 356.423 168.117 358.203 166.578 359.999C165.127 361.694 163.62 363.359 162.342 365.175C160.653 367.573 159.216 370.139 157.572 372.568C156.018 374.863 154.279 377.039 152.722 379.332C149.726 383.743 147.668 388.605 146.147 393.643C145.125 397.029 144.852 400.584 144.979 404.136C144.987 404.339 145.075 404.563 145.191 404.735C146.21 406.253 146.033 406.691 144.211 407.093C141.918 407.6 139.629 408.124 137.328 408.594C136.666 408.729 135.93 408.574 135.297 408.768C132.476 409.631 129.674 410.556 126.876 411.49C122.283 413.024 117.7 414.583 113.112 416.129C112.09 416.473 110.657 416.508 110.119 417.205C108.686 419.058 106.294 419.352 104.653 421.05C102.505 423.273 102.326 426.845 103.414 428.772C104.367 430.457 104.414 430.615 102.882 431.836C102.37 432.243 101.492 432.397 101.244 432.888C100.894 433.587 99.326 432.927 99.7748 434.269ZM138.661 218.347C138.636 218.473 138.61 218.599 138.584 218.724C138.713 218.656 138.843 218.587 139.114 218.488C139.16 218.41 139.207 218.332 139.46 218.246C141.559 217.195 143.808 216.351 145.716 215.036C147.742 213.638 149.4 211.743 151.301 210.158C153.921 207.975 155.63 205.228 156.464 202.034C157.006 199.958 156.64 197.775 155.587 195.906C154.609 194.172 152.819 193.777 150.762 194.318C150.909 193.134 151.336 192.292 152.472 192.142C154.981 191.81 157.098 193.209 157.732 195.564C158.772 199.426 158.283 203.067 156.026 206.448C155.538 207.179 155.125 207.957 154.522 208.974C155.867 208.095 156.967 207.449 157.983 206.695C160.508 204.819 162.979 202.872 165.523 201.019C165.769 200.84 166.39 201.06 166.794 201.208C167.112 201.325 167.346 201.644 167.647 201.828C169.604 203.022 171.565 204.249 173.473 205.47C176.739 207.561 180.497 208.419 183.829 210.25C185.163 210.983 186.73 211.313 188.189 211.83C189.631 212.342 191.046 212.941 192.517 213.353C194.526 213.914 196.591 214.281 198.605 214.828C201.286 215.557 203.943 216.373 206.607 217.164C208.041 217.59 209.461 218.059 210.897 218.479C212.518 218.953 214.046 219.272 215.537 217.914C216.63 216.918 218.028 216.24 219.413 215.341C218.695 214.731 217.819 213.983 216.939 213.239C214.35 211.051 211.835 208.771 209.144 206.71C207.376 205.357 205.395 204.248 203.432 203.163C201.334 202.003 199.171 200.945 196.987 199.943C195.065 199.061 193.101 198.249 191.108 197.533C188.912 196.745 186.658 196.113 184.438 195.385C183.923 195.216 183.452 194.924 182.95 194.71C181.606 194.138 180.287 193.491 178.901 193.038C177.56 192.599 176.157 192.321 174.766 192.05C170.971 191.309 167.182 190.522 163.362 189.924C160.812 189.524 158.216 189.398 155.638 189.18C151.252 188.808 146.859 188.139 142.477 188.197C138.648 188.248 134.78 188.439 130.996 189.71C128.864 190.427 126.94 191.465 124.913 192.325C124.305 192.583 123.759 193.471 123.614 194.157C123.394 195.191 123.553 196.301 123.55 197.379C123.546 199.553 123.497 201.728 123.546 203.901C123.653 208.664 123.831 213.425 123.938 218.187C123.99 220.509 123.947 222.833 123.947 225.155C124.098 225.229 124.249 225.302 124.4 225.375C125.692 224.465 127.133 223.696 128.227 222.598C129.092 221.73 130.286 220.799 129.865 219.199C129.834 219.084 130.687 218.747 131.13 218.513C131.289 218.852 131.562 219.185 131.582 219.531C131.616 220.145 131.495 220.767 131.439 221.386C131.589 221.448 131.738 221.51 131.888 221.571C133.318 219.765 134.809 218.001 136.152 216.134C136.829 215.193 137.282 214.085 137.734 213.011C137.837 212.765 137.474 212.357 137.406 212.009C137.355 211.744 137.325 211.291 137.468 211.203C138.355 210.656 139.131 211.024 139.162 212.034C139.2 213.251 139.277 214.487 138.302 215.514C137.999 215.832 137.966 216.394 137.581 216.844C137.305 217.068 137.028 217.292 136.751 217.516C136.843 217.614 136.935 217.711 137.027 217.809C137.348 217.572 137.668 217.334 138.144 216.989C140.283 215.151 142.135 213.095 143.45 210.597C144.192 209.186 143.962 206.881 142.906 205.692C142.328 205.041 142.309 204.433 143.228 203.988C144.086 203.572 145.077 204.251 145.434 205.572C146.127 208.134 145.274 210.465 143.861 212.485C142.454 214.497 140.626 216.23 138.903 218.12C138.853 218.154 138.821 218.2 138.661 218.347ZM26.4324 146.132C26.6446 145.813 26.8568 145.494 27.069 145.175C26.9434 145.1 26.8177 145.026 26.692 144.952C26.4875 145.315 26.2829 145.677 25.9659 146.126C25.97 146.189 25.9742 146.252 25.9784 146.316C26.0714 146.284 26.1644 146.252 26.4324 146.132ZM28.1397 142.899C27.7344 143.472 27.3292 144.045 26.924 144.619C27.109 144.723 27.2941 144.828 27.4792 144.932C27.8037 144.278 28.1281 143.623 28.6015 142.863C29.0358 142.294 29.4701 141.725 29.9044 141.156C29.7615 141.064 29.6185 140.972 29.4756 140.88C29.0906 141.535 28.7057 142.189 28.1397 142.899ZM27.0166 159.596C26.3204 160.85 25.6243 162.104 24.9281 163.358C25.0728 163.431 25.2174 163.504 25.3621 163.578C26.0825 162.284 26.8029 160.991 27.6717 159.604C28.0079 158.976 28.344 158.348 28.8895 157.713C29.5543 156.649 30.219 155.586 31.0845 154.514C31.3076 154.159 31.5307 153.804 31.932 153.381C32.7526 152.253 33.5086 151.072 34.4069 150.006C36.3414 147.71 38.2511 145.381 40.355 143.238C42.3763 141.179 44.5394 139.228 46.8057 137.428C49.2632 135.476 51.8936 133.728 54.4828 131.939C56.4949 130.548 58.4406 128.997 60.6272 127.93C64.4458 126.066 68.4006 124.457 72.3544 122.875C73.6958 122.338 75.1976 122.155 76.6431 121.904C77.594 121.738 78.0654 122.424 77.5916 123.092C77.0239 123.892 76.2225 124.789 74.9895 124.557C72.7323 124.133 70.8376 125.228 68.9222 125.986C65.9873 127.147 63.1539 128.56 60.3112 129.933C58.8689 130.63 57.4432 131.389 56.1116 132.267C53.9226 133.71 51.7608 135.204 49.6895 136.802C47.2621 138.675 44.8229 140.562 42.6118 142.665C40.3266 144.84 38.1404 147.157 36.2164 149.637C33.7409 152.828 31.5054 156.204 29.2915 159.578C28.0073 161.536 26.9774 163.651 25.8152 165.686C25.2943 166.598 24.6165 167.44 24.2074 168.394C23.2019 170.739 22.2769 173.119 21.3851 175.508C20.7151 177.303 20.0362 179.107 19.5591 180.956C18.8146 183.84 18.1223 186.748 17.6362 189.682C17.375 191.258 17.5898 192.909 17.5898 194.734C18.0349 194.428 18.7374 194.205 18.8701 193.804C19.2227 192.736 19.2619 191.574 19.552 190.481C19.8914 189.202 20.3644 187.957 20.7794 186.698C20.9417 186.747 21.104 186.796 21.2663 186.845C20.7472 189.208 20.2282 191.571 19.6951 193.999C20.4935 193.762 21.0387 193.695 21.4681 193.442C21.8201 193.235 22.1626 192.846 22.2888 192.467C23.0958 190.045 23.7446 187.569 24.6318 185.177C25.8437 181.909 27.1422 178.666 28.5554 175.477C29.5651 173.198 30.8087 171.016 31.9776 168.807C32.7557 167.336 33.5147 165.848 34.4127 164.447C35.3664 162.959 36.5219 161.595 37.4961 160.119C38.0418 159.292 38.3427 158.313 38.8617 157.466C39.1728 156.958 39.785 156.507 40.2991 157.182C40.6514 157.644 41.0409 158.515 40.8286 158.876C39.8673 160.509 38.8826 162.198 37.5609 163.544C35.487 165.656 34.5123 168.35 33.0927 170.793C31.5301 173.481 30.3078 176.364 29.0265 179.2C27.9604 181.56 26.9268 183.942 26.0595 186.376C25.3403 188.394 24.8845 190.502 24.2995 192.615C25.3736 192.386 26.4299 192.233 27.4394 191.931C30.0934 191.138 32.73 190.289 35.3665 189.442C35.9799 189.244 36.6393 189.063 37.1484 188.701C38.4583 187.77 39.6344 186.653 40.9743 185.77C44.2298 183.624 46.0847 180.767 46.5421 176.898C46.903 173.846 44.5551 169.05 41.3912 168.283C41.2354 168.245 41.1415 167.965 40.8905 167.622C41.8419 167.481 42.6294 167.384 43.4085 167.243C44.5486 167.036 45.6817 166.794 46.8197 166.576C47.2698 166.49 47.7413 166.323 48.173 166.386C48.5935 166.448 48.9545 166.854 49.3782 166.943C51.3489 167.359 52.6144 168.642 53.854 170.075C54.3763 170.679 54.973 171.89 56.2528 170.858C56.4328 170.713 57.0414 171.076 57.4527 171.201C58.1135 171.401 58.7752 171.598 59.6142 171.85C58.8129 171.04 58.1736 170.504 57.6974 169.854C57.5186 169.611 57.7187 169.102 57.746 168.714C58.1267 168.848 58.6292 168.874 58.867 169.133C59.95 170.311 60.8994 170.519 62.3111 169.847C64.5917 168.762 65.4801 166.954 65.2784 164.559C65.2139 163.793 65.1566 163.045 64.0587 162.948C63.8038 162.926 63.5947 162.41 63.3646 162.121C63.684 161.881 64.0042 161.443 64.3228 161.444C64.9094 161.446 65.495 161.706 66.1049 161.865C65.2234 160.323 64.6901 158.537 62.6945 157.832C62.4187 157.734 62.4148 156.905 62.285 156.414C62.6835 156.314 63.1999 156.008 63.4606 156.15C64.7084 156.828 65.7771 157.692 66.153 159.17C66.2792 159.667 66.7028 160.091 66.9904 160.549C67.0981 160.494 67.2058 160.439 67.3134 160.384C66.919 158.885 66.6753 157.327 66.088 155.903C65.497 154.471 64.9496 153.046 63.021 152.419C61.6515 151.974 60.3873 151.26 58.8799 151.143C58.5585 151.118 58.0576 150.566 58.0311 150.228C57.9776 149.546 58.4744 149.206 59.2085 149.334C59.6931 149.419 60.2274 149.414 60.6505 149.622C62.4319 150.497 64.6192 150.675 65.8022 152.602C66.2778 153.376 67.0254 153.992 67.7251 154.764C67.7251 151.936 67.7251 149.309 67.7251 146.641C67.1406 146.641 66.6243 146.565 66.1399 146.653C63.3056 147.173 60.4852 147.77 57.5761 147.182C55.7352 146.81 53.8829 146.492 52.0381 146.138C50.8297 145.906 50.6207 145.21 51.0488 144.16C51.701 142.561 52.3053 140.943 52.9268 139.332C53.2304 138.545 53.7463 138.223 54.6357 138.438C56.4593 138.879 58.2773 139.478 60.1312 139.636C64.5733 140.015 68.9464 139.48 73.1581 137.994C74.2901 137.594 75.33 136.95 76.4575 136.534C78.5913 135.749 80.3384 134.592 81.3327 132.49C81.726 131.658 82.4155 131.469 83.2091 132.15C82.7785 133.035 82.3644 133.886 81.9504 134.737C83.9099 133.815 84.6957 132.094 85.5676 130.471C85.8444 129.956 85.8675 129.223 85.7742 128.625C85.5752 127.348 86.1943 126.459 87.7469 126.253C87.7469 127.344 88.0178 128.508 87.6825 129.471C87.1983 130.861 86.267 132.101 85.5419 133.414C85.249 133.944 84.9968 134.495 84.5572 135.375C86.0548 134.783 87.2095 134.484 88.1932 133.908C91.6987 131.855 95.4022 130.076 98.3961 127.28C99.2649 126.469 100.496 125.636 100.714 124.637C101.131 122.735 101.899 120.736 100.896 118.721C100.337 117.6 97.8634 116.556 96.7644 117.2C95.9309 117.689 95.2359 118.396 94.4465 118.963C93.512 119.634 92.5423 120.258 91.5879 120.902C91.5032 120.806 91.4186 120.709 91.3339 120.613C92.8845 117.203 93.9147 113.466 97.6612 111.39C97.2131 111.279 96.8349 111.209 96.4943 111.29C92.5355 112.228 88.5371 113.043 84.6403 114.186C80.6518 115.357 76.7153 116.735 72.8478 118.246C69.6033 119.514 66.4763 121.074 63.327 122.565C61.928 123.227 60.5085 123.911 59.2629 124.804C56.8902 126.505 54.637 128.365 52.3317 130.155C50.421 131.639 48.3015 132.929 46.6368 134.64C43.1607 138.214 39.8262 141.931 36.6249 145.742C34.6532 148.09 33.035 150.72 31.0947 153.272C30.9529 153.635 30.811 153.998 30.495 154.414C29.8038 155.444 29.1127 156.475 28.2674 157.613C27.907 158.24 27.5465 158.868 27.0166 159.596ZM43.5581 264.225C43.2989 264.114 43.0396 264.003 42.7803 263.891C42.7458 263.976 42.7112 264.06 42.6766 264.144C42.8681 264.309 43.0596 264.473 43.3311 264.812C47.7571 269.921 52.5844 274.637 57.5483 279.059C58.254 277.13 58.6539 275.296 59.552 273.734C61.4418 270.449 63.4886 267.248 66.5069 264.748C67.8953 263.597 67.9815 261.419 66.9982 260.041C66.7095 260.468 66.4269 260.912 66.1175 261.337C64.5365 263.512 62.2729 264.854 59.791 265.676C57.9857 266.274 55.9959 266.443 54.0726 266.561C52.8883 266.635 51.6674 266.071 50.4756 266.115C47.986 266.208 45.8301 265.242 43.5581 264.225ZM109.946 132.129C111.604 130.804 113.092 129.164 115.735 129.276C115.858 129.774 116.294 130.581 116.068 130.84C115.709 131.252 114.904 131.283 114.298 131.502C113.46 131.804 112.422 131.923 111.836 132.485C109.485 134.738 107.252 137.115 105.859 140.099C105.773 140.284 105.743 140.495 105.651 140.678C104.716 142.536 103.884 144.414 104.235 146.745C105.023 145.494 105.577 144.321 106.401 143.371C107.733 141.834 108.62 141.719 109.76 142.714C108.043 143.491 106.732 144.489 106.118 146.404C105.467 148.437 105.921 150.389 106.733 151.959C108.408 155.198 111.806 156.258 115.255 156.482C117.17 156.606 119.139 155.878 121.089 155.563C122.167 155.389 122.582 154.87 122.54 153.756C122.394 149.841 122.312 145.922 122.271 142.004C122.23 138.17 122.336 134.334 122.255 130.502C122.18 126.951 121.946 123.404 121.772 119.855C121.765 119.7 121.667 119.549 121.561 119.258C120.49 120.188 119.476 121.004 118.54 121.897C117.051 123.318 115.541 124.729 114.173 126.257C112.529 128.094 111.023 130.05 109.306 132.061C109.059 132.44 108.813 132.818 108.566 133.197C108.684 133.272 108.803 133.348 108.921 133.423C109.201 133.003 109.48 132.584 109.946 132.129ZM171.735 304.867C172.567 304.732 173.426 304.686 174.224 304.445C175.962 303.922 177.626 303.05 179.395 302.767C183.825 302.058 187.839 300.39 191.689 298.248C194.924 296.448 198.227 294.748 201.355 292.784C205.244 290.341 209.076 287.789 212.757 285.059C215.237 283.22 217.423 281.001 219.723 278.932C221.45 277.379 223.22 275.861 224.841 274.207C226.566 272.447 228.156 270.559 229.773 268.7C231.107 267.166 232.409 265.605 233.69 264.028C233.919 263.746 233.972 263.328 234.077 263.049C231.443 264.088 228.876 265.123 226.29 266.112C224.483 266.803 222.548 267.243 220.851 268.126C217.609 269.814 214.495 271.734 211.332 273.566C209.325 274.728 207.258 275.805 205.34 277.095C202.486 279.014 199.725 281.067 196.954 283.101C193.978 285.286 191.043 287.523 188.079 289.723C183.976 292.769 180.116 296.075 176.534 299.701C175.233 301.018 173.696 302.112 172.305 303.348C171.88 303.726 171.582 304.239 171.083 304.785C171.056 304.884 171.028 304.983 171.001 305.082C171.169 305.016 171.338 304.949 171.735 304.867ZM79.2336 262.004C77.647 262.519 76.0603 263.034 74.6019 263.508C76.4607 263.665 78.4447 263.667 80.3467 264.053C81.58 264.303 82.706 265.093 83.8484 265.697C84.027 265.792 84.1633 266.237 84.0883 266.437C84.0123 266.639 83.6316 266.88 83.416 266.854C83.0043 266.805 82.6073 266.594 82.2179 266.421C81.1665 265.953 80.14 265.12 79.0715 265.069C77.162 264.977 75.1755 265.141 73.3191 265.586C70.894 266.168 68.609 267.212 66.7085 268.89C66.5414 269.037 66.3871 269.247 66.1892 269.305C64.9712 269.658 64.6802 270.632 64.4652 271.668C64.4053 271.957 64.4377 272.4 64.2599 272.508C62.7336 273.429 63.0724 274.824 63.2479 276.155C63.4219 277.472 63.9556 278.762 62.297 279.704C61.5318 280.139 61.0632 281.071 60.3881 281.861C66.3189 285.736 72.1856 289.607 78.4909 292.608C79.0952 291.19 79.4662 289.865 80.1778 288.746C81.511 286.651 82.9918 284.592 85.115 283.188C88.7934 280.756 92.401 278.236 97.0491 277.62C100.297 277.19 103.471 276.826 106.671 277.691C108.054 278.064 109.531 279.494 109.099 280.96C108.956 281.448 108.27 281.99 107.736 282.115C106.971 282.294 106.614 281.699 106.674 280.94C106.781 279.601 105.705 279.233 104.767 279.099C103.069 278.857 101.319 278.691 99.6157 278.817C96.5094 279.047 93.637 280.186 90.8423 281.479C90.5566 281.611 90.347 281.899 90.0667 282.147C91.3132 282.297 92.4411 282.376 93.5432 282.585C94.4343 282.753 94.5366 283.45 93.9656 283.953C93.6316 284.247 92.8415 284.319 92.3793 284.158C90.1283 283.37 88.1387 283.902 86.3187 285.196C85.4773 285.794 84.8884 286.756 84.0128 287.278C81.9893 288.484 81.811 290.354 81.8425 292.323C81.8746 294.333 83.5413 295.175 85.0275 295.804C86.2239 296.309 87.5353 295.899 88.4766 294.667C88.7781 294.273 89.9434 294.057 90.3802 294.309C91.1678 294.763 90.826 295.548 90.202 296.087C89.6692 296.547 89.1012 296.967 88.3151 297.591C90.9716 298.431 93.4387 299.267 95.9409 299.987C98.9661 300.858 102.025 301.617 105.061 302.453C105.917 302.688 106.725 303.114 107.59 303.299C109.932 303.802 112.295 304.216 114.647 304.678C117.287 305.197 119.923 305.731 122.812 306.308C122.621 302.045 122.439 297.971 122.258 293.897C121.279 294.732 120.652 295.673 119.913 296.521C118.706 297.906 117.954 299.669 115.722 300.111C113.806 300.491 112.086 300.706 110.535 299.377C109.048 298.104 108.613 295.162 109.76 293.236C110.861 291.388 111.945 289.436 113.462 287.942C115.739 285.698 118.343 283.759 120.902 281.807C121.822 281.105 122.424 280.509 122.416 279.257C122.363 271.096 122.395 262.936 122.397 254.775C122.397 254.373 122.377 253.97 122.37 253.567C122.318 250.455 122.226 247.342 122.228 244.229C122.229 241.596 122.694 238.914 122.313 236.344C121.835 233.115 122.537 229.905 121.943 226.679C121.598 224.808 122.086 222.8 122.132 220.852C122.179 218.836 122.215 216.815 122.124 214.802C122.051 213.188 121.648 211.585 121.622 209.974C121.551 205.478 121.603 200.981 121.599 196.484C121.598 196.106 121.543 195.729 121.508 195.281C121.221 195.348 120.995 195.334 120.885 195.437C119.419 196.814 117.907 198.152 116.534 199.613C115.319 200.907 113.746 201.971 113.463 203.956C113.408 204.343 112.639 204.632 112.199 204.966C112.098 204.869 111.997 204.771 111.895 204.674C111.895 205.376 111.895 206.079 111.895 206.831C113.019 207.132 114.133 207.417 115.237 207.733C115.602 207.838 116.204 207.984 116.237 208.184C116.297 208.546 116.062 208.99 115.862 209.353C115.293 210.379 114.452 211.321 114.153 212.41C113.888 213.375 113.372 213.692 112.56 213.874C111.682 214.071 110.8 214.333 109.909 214.378C108.837 214.432 107.594 214.599 106.71 214.165C104.916 213.283 104.512 211.119 105.518 209.326C107.887 205.103 110.946 201.349 114.137 197.721C116.213 195.36 118.659 193.31 120.881 191.065C121.269 190.672 121.558 190.007 121.566 189.463C121.631 185.159 121.618 180.855 121.627 176.551C121.631 174.587 121.627 172.622 121.627 170.808C110.521 173.561 99.5321 176.285 88.424 179.039C90.1073 179.652 91.6805 180.134 93.174 180.789C95.9691 182.015 98.6925 183.397 101.495 184.604C103.226 185.35 104.055 186.318 104.093 188.177C104.153 191.051 104.203 193.926 104.247 196.801C104.318 201.357 104.455 205.913 104.418 210.468C104.397 213.076 103.995 215.68 103.935 218.289C103.887 220.419 104.125 222.554 104.177 224.688C104.293 229.426 104.355 234.165 104.472 238.903C104.517 240.724 104.701 242.542 104.735 244.362C104.782 246.813 104.853 249.272 104.705 251.715C104.607 253.349 104.705 253.726 106.402 254.134C107.273 254.343 108.284 254.327 108.996 254.771C110.66 255.811 112.242 257 113.746 258.256C115.586 259.792 116.085 261.771 114.803 263.694C113.2 266.1 111.82 268.709 109.524 270.618C109.221 270.87 108.767 270.946 108.382 271.103C108.406 270.608 108.35 270.095 108.468 269.622C108.728 268.571 109.525 267.41 108.549 266.503C107.011 265.075 105.402 263.629 103.579 262.606C100.028 260.613 96.0038 260.451 92.008 260.384C91.8243 260.381 91.6396 260.377 91.4569 260.391C91.2763 260.405 91.0975 260.442 90.7262 260.499C94.1424 261.728 97.2084 263.094 99.4119 265.766C100.842 267.499 102.132 269.204 101.952 271.732C101.842 273.284 100.35 275.405 98.6049 275.974C97.6808 276.275 96.8697 275.641 96.6289 274.878C96.409 274.182 97.0557 273.866 97.8219 273.545C98.5718 273.23 99.4895 272.197 99.491 271.478C99.4968 268.661 97.6407 266.667 95.5855 265.002C94.0987 263.798 92.2365 263.232 90.3135 262.677C86.6808 261.629 83.1064 261.281 79.2336 262.004ZM45.792 203.202C44.7223 203.81 43.6162 204.366 42.5909 205.039C40.7787 206.229 39.1041 207.562 37.7288 209.264C35.5366 211.976 33.6889 214.878 32.5172 218.132C31.474 221.03 30.6083 223.988 29.6982 226.93C29.5001 227.571 29.4461 228.254 29.3169 228.966C30.8291 227.026 32.1501 225.171 33.6708 223.488C34.0744 223.042 35.3857 222.752 35.7662 223.04C36.5562 223.636 35.6319 224.089 35.2023 224.624C33.9058 226.239 32.6845 227.917 31.5297 229.631C29.9329 232.002 30.0098 234.724 30.0298 237.407C30.0511 240.253 31.042 242.685 33.3656 244.524C33.5506 244.67 33.7179 245.178 33.6403 245.247C33.0005 245.816 32.4197 246.654 31.3397 246.052C30.9404 245.829 30.5369 245.614 29.9636 245.301C31.0815 249.186 33.9522 251.192 37.4789 252.905C36.5274 253.566 35.9023 254 35.0206 254.612C36.4919 256.26 38.0212 258.005 39.5933 259.711C39.9484 260.097 40.4113 260.441 40.8947 260.651C44.0452 262.019 47.2627 263.059 50.7916 262.293C54.2837 261.536 57.5916 260.401 59.8703 257.513C60.573 256.623 60.9229 255.474 61.4974 254.479C62.9492 251.963 62.3144 248.677 60.0724 246.825C59.7668 246.573 59.7952 245.935 59.6689 245.476C60.1845 245.358 60.8754 244.972 61.1859 245.166C62.7314 246.131 64.2021 247.34 64.3903 249.232C64.7425 252.772 64.1551 256.16 61.793 259.038C59.4487 261.895 56.2708 263.346 52.6613 264.1C52.8313 264.18 53.0162 264.298 53.2191 264.356C53.4352 264.418 53.6688 264.453 53.8939 264.449C58.5588 264.373 62.2199 262.473 64.8055 258.67C65.2404 258.031 65.613 257.338 65.919 256.63C66.521 255.238 67.37 253.855 67.5475 252.401C67.836 250.04 67.711 247.624 67.6813 245.233C67.6293 241.042 66.243 237.344 63.2503 234.276C62.1223 233.12 60.7713 232.472 59.1023 232.474C58.3792 232.475 57.8262 232.527 57.5602 233.365C57.3577 234.003 56.2935 234.016 55.7926 233.465C55.1832 232.795 55.8186 230.728 56.7703 230.677C58.1559 230.602 59.654 230.561 60.9349 230.988C63.7122 231.915 65.3242 234.218 66.8859 236.497C67.084 236.786 67.3465 237.033 67.6804 237.415C67.7921 237.037 67.8646 236.91 67.8615 236.784C67.749 232.321 67.531 227.858 67.5429 223.396C67.5519 220.006 65.7436 217.585 63.553 215.304C62.9529 214.679 62.2812 214.029 61.5058 213.675C60.0615 213.016 58.544 212.472 57.0079 212.05C54.7085 211.419 52.375 210.639 50.1247 212.359C49.8223 212.591 49.0349 212.37 48.5714 212.155C48.4342 212.092 48.4648 211.138 48.7158 210.924C49.528 210.228 50.4345 209.608 51.385 209.103C53.2347 208.12 55.3275 207.779 57.3584 207.787C59.86 207.798 62.3714 208.189 64.8534 208.572C65.7319 208.707 66.5364 209.3 67.5595 209.768C67.7377 200.949 67.9102 192.407 68.0838 183.812C67.813 183.898 67.5641 184.001 67.3047 184.057C62.7715 185.044 58.2332 186.009 53.7044 187.015C50.9423 187.628 48.1863 188.271 45.4424 188.958C42.8923 189.596 40.3601 190.302 37.8238 190.992C36.5745 191.331 35.316 191.651 34.0928 192.066C31.6232 192.905 28.7718 192.455 26.5641 194.19C26.4917 194.246 26.2275 194.02 26.09 194.057C25.0537 194.337 23.6418 193.978 23.3874 195.603C23.0305 197.883 22.6182 200.155 22.2543 202.434C22.0745 203.56 21.8772 204.691 21.8149 205.826C21.6606 208.634 21.3488 211.46 21.5274 214.253C21.7509 217.749 22.3951 221.221 22.8713 224.701C23.0159 225.758 23.2052 226.809 23.374 227.862C23.7808 225.965 23.8455 224.102 24.0247 222.25C24.1944 220.497 24.4173 218.744 24.7381 217.012C25.1457 214.812 25.615 212.618 26.173 210.45C26.572 208.899 27.1055 207.375 27.6807 205.876C28.208 204.501 28.8373 203.16 29.4887 201.836C29.8458 201.11 30.2967 200.412 30.8189 199.793C30.905 199.691 31.9017 200.026 31.9229 200.217C32.0162 201.061 32.0128 201.819 31.3587 202.676C30.1531 204.254 29.14 206.04 28.4091 207.877C27.7111 209.631 27.3729 211.543 27.0577 213.415C26.5245 216.582 26.1336 219.772 25.684 222.953C25.6346 223.302 25.6775 223.69 25.5345 223.997C24.5641 226.077 25.0278 228.145 25.4134 230.317C25.6406 230.145 25.827 230.077 25.8447 229.979C26.1805 228.13 26.4568 226.269 26.8283 224.426C27.15 222.831 27.5327 221.245 27.966 219.676C28.4063 218.081 29.1724 216.538 29.3714 214.923C29.5787 213.24 30.4061 211.844 31.1882 210.513C32.6262 208.064 34.376 205.772 36.1557 203.536C38.6852 200.358 41.8391 197.951 46.0286 197.297C47.6654 197.041 49.3861 197.046 50.6141 198.641C51.5304 199.831 51.5289 201.105 50.926 202.233C50.6458 202.757 49.548 202.984 48.7802 203.11C47.8862 203.257 46.9477 203.147 45.792 203.202ZM210.86 248.92C212.16 249.349 213.509 249.674 214.752 250.228C217.54 251.469 220.23 252.927 223.043 254.11C227.216 255.864 231.31 257.74 235.107 260.198C235.331 260.343 236.012 260.243 236.125 260.054C236.787 258.956 237.708 257.841 237.856 256.65C238.161 254.204 238.352 251.663 238.002 249.241C237.533 245.99 236.54 242.807 235.705 239.612C235.434 238.572 235.049 237.537 234.549 236.584C233.682 234.931 232.553 233.401 231.769 231.715C229.749 227.372 226.136 224.177 223.517 220.345C221.168 222.075 218.948 223.78 215.876 224.822C216.213 224.323 216.338 224.151 216.45 223.971C217.17 222.81 216.296 221.995 215.675 221.259C215.149 220.636 214.374 220.566 213.55 221.129C211.193 222.739 208.749 224.228 206.392 225.839C204.11 227.399 201.903 229.063 199.648 230.662C196.87 232.634 194.08 234.589 191.288 236.542C190.519 237.08 189.719 237.578 188.941 238.106C187.441 239.124 185.947 240.15 184.506 241.135C185.919 241.49 187.338 241.84 188.754 242.204C192.592 243.191 196.436 244.16 200.264 245.186C202.078 245.672 203.881 246.215 205.649 246.839C207.343 247.438 208.987 248.174 210.86 248.92ZM137.971 230.87C139 231.234 140.085 231.493 141.048 231.981C145.617 234.294 150.615 235.098 155.585 235.978C159.559 236.681 163.557 237.254 167.541 237.9C168.418 238.042 169.282 238.256 170.153 238.428C172.26 238.842 174.379 239.2 176.472 239.673C179.118 240.271 181.607 240.997 184.141 238.958C186.593 236.985 189.42 235.457 192.328 233.574C190.64 233.227 189.245 233.041 187.914 232.648C184.407 231.614 180.923 230.504 177.439 229.397C175.378 228.742 173.278 228.163 171.294 227.327C166.571 225.335 161.861 223.303 157.238 221.103C154.777 219.931 152.52 218.353 150.143 217.007C149.371 216.57 148.436 215.898 147.702 216.026C146.631 216.213 145.659 217 144.673 217.577C143.265 218.399 141.914 219.319 140.48 220.093C138.808 220.997 137.058 221.762 135.369 222.639C134.151 223.271 132.961 223.961 131.791 224.676C130.904 225.22 130.069 225.845 128.929 226.628C132.042 228.061 134.928 229.391 137.971 230.87ZM178.814 264.99C176.374 264.441 173.953 263.783 171.489 263.367C167.668 262.721 163.825 262.174 159.975 261.722C158.429 261.541 156.812 261.906 155.276 261.69C153.561 261.448 152.298 262.129 151.021 262.981C148.828 264.444 146.642 265.918 144.46 267.396C143.409 268.107 142.372 268.838 141.329 269.56C141.38 269.669 141.432 269.778 141.483 269.887C142.119 269.793 142.765 269.574 143.389 269.624C146.71 269.896 150.04 270.129 153.335 270.594C155.022 270.833 156.618 271.622 158.294 272C161.647 272.755 164.844 273.866 168.052 275.103C170.523 276.056 172.936 277.075 175.304 278.231C177.146 279.13 179.076 279.887 180.823 280.934C183.765 282.698 186.593 284.642 189.553 286.565C191.309 285.344 193.393 283.908 195.463 282.454C197.285 281.174 199.079 279.856 200.91 278.588C201.917 277.89 202.998 277.293 203.985 276.571C204.18 276.429 204.258 275.74 204.113 275.62C203.558 275.157 202.905 274.795 202.261 274.445C200.256 273.356 198.269 272.232 196.219 271.231C193.813 270.057 191.366 268.956 188.899 267.908C187.804 267.443 186.618 267.177 185.467 266.84C183.332 266.216 181.193 265.606 178.814 264.99ZM142.438 307.836C149.759 308.082 156.962 307.098 164.158 306.078C163.242 305.142 162.522 304.237 161.635 303.534C159.047 301.481 156.44 299.445 153.746 297.528C151.85 296.179 149.868 294.909 147.801 293.83C145.128 292.434 142.342 291.244 139.586 290.005C137.679 289.148 135.782 288.237 133.804 287.568C131.302 286.723 128.732 286.062 126.169 285.403C125.518 285.236 124.784 285.378 124.038 285.378C124.038 289.445 124.026 293.347 124.05 297.249C124.054 297.9 124.282 298.549 124.298 299.201C124.339 300.857 124.291 302.514 124.329 304.17C124.381 306.414 123.705 306.8 126.682 306.774C128.762 306.755 130.854 306.641 132.922 306.801C136.015 307.039 139.091 307.48 142.438 307.836ZM148.168 262.27C148.544 262.012 148.921 261.754 149.506 261.353C145.955 260.819 142.698 260.33 139.442 259.84C136.435 259.388 133.428 258.936 130.422 258.482C130.287 258.462 130.147 258.445 130.023 258.394C128.039 257.575 126.056 256.751 123.985 255.892C123.985 263.703 123.985 271.467 123.985 279.589C132.608 274.304 139.995 267.92 148.168 262.27ZM123.552 186.029C123.552 186.733 123.552 187.437 123.552 188.378C133.712 179.569 143.584 171.01 153.455 162.45C153.385 162.338 153.314 162.226 153.244 162.113C151.968 162.498 150.703 162.925 149.413 163.261C145.873 164.184 142.321 165.062 138.777 165.973C138.308 166.094 137.875 166.352 137.404 166.46C135.832 166.82 134.24 167.101 132.674 167.485C130.18 168.097 127.711 168.807 125.211 169.396C124.113 169.655 123.52 170.007 123.542 171.303C123.622 176.123 123.56 180.946 123.552 186.029ZM103.056 137.817C103.075 138.229 103.095 138.641 103.129 139.368C103.768 138.176 104.159 137.239 104.729 136.422C106.667 133.64 108.545 130.805 110.678 128.17C113.391 124.819 116.326 121.642 119.829 119.017C120.518 118.502 121.513 117.816 121.564 117.15C121.766 114.532 121.647 111.891 121.647 108.951C120.116 108.951 118.716 108.884 117.326 108.969C115.792 109.063 114.268 109.307 112.737 109.465C110.638 109.682 108.536 109.879 106.269 110.101C106.476 110.354 106.59 110.529 106.737 110.671C108.673 112.533 109.185 114.835 108.265 117.204C107.148 120.078 105.638 122.805 104.343 125.615C103.808 126.777 102.887 127.714 102.999 129.232C103.204 131.996 103.056 134.786 103.056 137.817ZM115.897 293.889C117.675 294.625 119.353 293.96 120.992 293.429C121.471 293.274 122.037 292.566 122.078 292.073C122.273 289.778 122.339 287.47 122.356 285.166C122.361 284.481 121.313 284.214 120.678 284.696C118.549 286.312 116.48 288.011 114.285 289.535C113.308 290.214 113.404 291.046 113.772 291.722C114.211 292.526 115.039 293.129 115.897 293.889ZM136.848 109.704C136.555 109.76 136.256 109.884 135.969 109.863C132.906 109.643 129.846 109.386 126.783 109.173C126.089 109.124 125.37 109.306 124.69 109.203C123.608 109.038 123.411 109.538 123.478 110.41C123.549 111.334 123.6 112.262 123.624 113.189C123.649 114.12 123.63 115.052 123.63 116.306C128.713 113.105 133.984 111.332 139.563 110.309C138.728 110.132 137.894 109.955 136.848 109.704ZM103.275 155.87C103.275 157.614 103.275 159.357 103.275 161.099C106.381 160.385 109.502 159.668 112.482 158.984C110.878 158.366 109.149 157.885 107.616 157.058C106.066 156.222 104.71 155.044 103.275 154.02C103.275 154.474 103.275 155.053 103.275 155.87ZM19.1451 201.957C18.9734 203.52 18.6864 205.08 18.6628 206.644C18.6397 208.175 18.8715 209.711 19.0188 211.243C19.0824 211.904 18.6024 212.798 19.7705 213.062C19.8328 213.076 19.7786 213.582 19.7786 213.858C19.6885 207.629 20.2199 201.444 21.5751 195.149C20.7071 195.381 20.1179 195.538 19.6418 195.665C19.473 197.761 19.3135 199.741 19.1451 201.957ZM18.3763 199.459C18.3763 198.202 18.3763 196.945 18.3763 195.688C17.84 195.93 17.3519 196.288 17.3065 196.692C17.0988 198.54 16.8881 200.404 16.9166 202.258C16.9614 205.182 17.1674 208.106 17.3715 211.026C17.4252 211.794 17.7225 212.546 17.908 213.306C18.0355 213.29 18.1631 213.273 18.2907 213.257C18.0534 208.737 17.2139 204.206 18.3763 199.459ZM210.549 338.151C210.026 339.898 209.605 341.653 210.032 343.549C210.808 339.956 211.565 336.455 212.282 333.133C211.123 334.377 210.774 336.123 210.549 338.151ZM65.8003 169.471C65.7849 169.429 65.7767 169.382 65.7511 169.348C65.7381 169.33 65.6803 169.32 65.6651 169.332C64.5742 170.226 63.4856 171.122 62.4325 171.989C64.1263 172.023 65.3868 171.427 65.8003 169.471ZM41.5061 125.93C41.2644 125.851 40.863 125.644 40.8059 125.713C40.282 126.338 39.8179 127.01 39.1151 127.972C40.5062 127.742 40.8617 126.832 41.5061 125.93ZM30.3267 140.466C30.2901 140.31 30.2535 140.154 30.2169 139.998C30.0661 140.217 29.9153 140.435 29.7644 140.654C29.9056 140.636 30.0468 140.619 30.3267 140.466ZM143.644 347.668C143.681 347.642 143.723 347.62 143.753 347.587C143.768 347.57 143.763 347.535 143.767 347.507C143.485 347.487 143.203 347.466 142.922 347.445C142.919 347.526 142.917 347.608 142.915 347.689C143.087 347.689 143.259 347.689 143.644 347.668ZM136.558 218.057C136.365 218.054 136.172 218.046 135.981 218.063C135.968 218.064 135.975 218.264 135.972 218.372C136.147 218.343 136.322 218.315 136.558 218.057ZM144.398 347.509C144.331 347.505 144.264 347.501 144.197 347.497C144.229 347.528 144.26 347.56 144.398 347.509Z" fill="white"/>
<path d="M0.775764 207.304C0.909693 207.191 1.16119 207.207 1.16092 207.214C1.11611 208.36 1.05325 209.505 0.883431 210.663C0.775765 209.594 0.775765 208.511 0.775764 207.304Z" fill="white"/>
<path d="M0.775764 204.04C0.955611 203.947 1.13546 203.943 1.42061 203.899C1.32005 204.145 1.11419 204.431 0.842046 204.603C0.775764 204.369 0.775764 204.249 0.775764 204.04Z" fill="white"/>
<path d="M91.5209 94.4625C91.6482 94.4723 91.7755 94.482 91.9962 94.5147C90.855 95.1091 89.652 95.7632 88.3764 96.2276C87.2224 96.6477 85.9891 96.8609 84.7908 97.1653C84.7227 97.0407 84.6546 96.9162 84.5866 96.7916C85.2459 96.3657 85.9052 95.9397 86.7694 95.5431C88.376 95.0094 89.8867 94.6039 90.6678 93.1426C91.1274 92.7537 91.587 92.3649 92.1905 92.0905C92.5951 92.0441 92.8556 91.8831 93.1162 91.7222C93.1162 91.7222 93.1292 91.7207 93.2092 91.8264C93.5089 91.6839 93.7286 91.4357 93.9483 91.1876C93.9483 91.1876 93.9186 91.2047 93.9112 91.1894C94.5239 90.9624 95.1439 90.7506 95.9027 90.5789C96.1835 90.7275 96.3255 90.836 96.4676 90.9446C94.7569 91.9809 93.0463 93.0172 91.2073 94.1611C90.9504 94.3734 90.8217 94.4781 90.6931 94.5828C90.7219 94.6384 90.7506 94.694 90.7793 94.7496C91.0265 94.6539 91.2737 94.5582 91.5209 94.4625Z" fill="white"/>
<path d="M143.081 343.636C143.123 343.581 143.164 343.527 143.139 343.394C144.251 343.171 145.43 343.024 146.61 342.885C147.077 342.83 147.547 342.794 148.178 342.868C150.116 342.822 151.891 342.662 153.663 342.469C153.737 342.461 153.774 342.135 153.829 341.958C155.088 341.915 156.348 341.866 157.608 341.843C157.678 341.842 157.752 342.053 157.856 342.314C157.488 342.49 157.047 342.424 156.699 342.57C156.343 342.72 156.079 343.078 155.775 343.345C155.775 343.345 155.788 343.321 155.797 343.331C154.38 343.382 152.949 343.373 151.528 343.479C150.424 343.562 149.33 343.788 148.095 343.898C147.221 343.808 146.484 343.766 145.746 343.734C144.858 343.697 143.97 343.668 143.081 343.636Z" fill="white"/>
<path d="M209.982 351.015C209.766 351.317 209.606 351.526 209.422 351.857C209.293 351.905 209.094 351.828 209.096 351.756C209.133 349.785 209.174 347.814 209.267 345.845C209.28 345.578 209.575 345.324 210.038 345.16C210.038 347.08 210.038 349.001 209.982 351.015Z" fill="white"/>
<path d="M156.948 348.15C156.859 348.017 156.866 347.869 156.866 347.609C157.604 347.084 158.349 346.671 159.234 346.293C159.373 346.328 159.45 346.42 159.45 346.42C158.647 346.991 157.845 347.563 156.948 348.15Z" fill="white"/>
<path d="M28.4526 142.969C28.1281 143.623 27.8037 144.278 27.4792 144.932C27.2941 144.828 27.109 144.723 26.924 144.619C27.3292 144.045 27.7344 143.472 28.2633 142.902C28.3868 142.906 28.4526 142.969 28.4526 142.969Z" fill="white"/>
<path d="M155.695 347.645C155.11 347.995 154.421 348.328 153.626 348.66C154.21 348.315 154.901 347.971 155.695 347.645Z" fill="white"/>
<path d="M28.3537 142.875C28.7056 142.189 29.0906 141.535 29.4756 140.88C29.6185 140.972 29.7615 141.064 29.9044 141.156C29.4701 141.725 29.0358 142.294 28.527 142.916C28.4526 142.969 28.3868 142.906 28.3537 142.875Z" fill="white"/>
<path d="M205.695 331.489C205.815 331.246 205.936 331.003 206.13 330.718C206.401 330.673 206.598 330.67 206.895 330.667C206.838 330.938 206.683 331.208 206.335 331.491C205.993 331.499 205.844 331.494 205.695 331.489Z" fill="white"/>
<path d="M26.0784 146.04C26.2829 145.677 26.4875 145.315 26.692 144.952C26.8177 145.026 26.9434 145.1 27.069 145.175C26.8568 145.494 26.6446 145.813 26.3012 146.13C26.1701 146.128 26.0784 146.04 26.0784 146.04Z" fill="white"/>
<path d="M30.2574 140.533C30.0468 140.619 29.9056 140.636 29.7644 140.654C29.9153 140.435 30.0661 140.217 30.2169 139.998C30.2535 140.154 30.2901 140.31 30.2574 140.533Z" fill="white"/>
<path d="M152.378 349.077C152.202 349.246 151.973 349.357 151.651 349.424C151.814 349.26 152.069 349.14 152.378 349.077Z" fill="white"/>
<path d="M153.419 348.672C153.372 348.84 153.246 349.004 153.034 349.132C153.079 348.954 153.21 348.811 153.419 348.672Z" fill="white"/>
<path d="M159.335 346.282C159.465 346.194 159.633 346.152 159.801 346.11C159.736 346.194 159.67 346.279 159.527 346.392C159.45 346.42 159.373 346.328 159.335 346.282Z" fill="white"/>
<path d="M26.2137 146.174C26.1644 146.252 26.0714 146.284 25.9784 146.316C25.9742 146.252 25.97 146.189 26.0221 146.083C26.0784 146.04 26.1701 146.128 26.2137 146.174Z" fill="white"/>
<path d="M207.217 330.182C207.263 330.235 207.256 330.335 207.171 330.462C207.117 330.402 207.14 330.315 207.217 330.182Z" fill="white"/>
<path d="M248.207 154.791C249.61 152.766 250.912 150.793 252.294 148.875C252.581 148.476 253.165 148.28 253.612 147.991C253.813 148.38 254.098 148.75 254.201 149.163C254.496 150.348 254.456 151.663 255.869 152.298C256.651 152.65 257.472 153 258.125 153.528C259.237 154.428 260.222 155.478 261.282 156.442C261.541 156.678 261.922 157.028 262.182 156.981C263.897 156.67 264.882 158.156 265.521 158.949C266.621 160.313 268.532 160.27 269.452 161.913C270.27 163.375 271.92 164.385 273.164 165.631C274.07 166.539 273.718 167.998 272.539 169.425C271.429 170.767 270.543 172.283 269.445 173.636C268.623 174.651 267.654 175.56 266.694 176.459C264.154 178.839 261.605 181.177 259.703 184.144C258.745 185.638 257.246 186.797 256.016 188.128C255.005 189.221 254.028 190.345 252.943 191.561C251.487 191.6 250.773 190.629 251.381 189.109C251.823 188.007 251.964 187.291 250.619 186.394C248.052 184.683 245.786 182.542 243.401 180.573C240.604 178.264 237.812 175.951 235.021 173.636C233.436 172.321 233.183 171.385 234.618 169.602C236.455 167.319 238.635 165.303 240.596 163.11C242.703 160.753 244.715 158.316 246.799 155.938C247.169 155.516 247.686 155.218 248.207 154.791Z" fill="white"/>
<path d="M205.627 331.557C205.844 331.494 205.993 331.498 206.254 331.514C205.384 333.612 204.47 335.733 203.404 337.778C201.965 340.538 200.354 343.214 198.934 345.983C198.463 346.901 198.357 347.995 198.077 349.007C197.983 349.344 197.944 349.735 197.737 349.992C197.472 350.321 197.063 350.541 196.716 350.808C196.496 350.358 196.028 349.867 196.097 349.465C196.46 347.365 197.352 345.485 198.571 343.683C200.147 341.356 201.461 338.86 202.899 336.444C203.266 335.827 203.676 335.234 204.2 334.514C204.395 334.198 204.456 333.997 204.517 333.796C204.865 333.073 205.212 332.349 205.627 331.557Z" fill="white"/>
<path d="M204.439 333.834C204.456 333.997 204.395 334.198 204.253 334.427C204.235 334.262 204.298 334.067 204.439 333.834Z" fill="white"/>
<path d="M145.586 61.4227C149.889 58.4155 154.016 55.2084 157.546 51.3309C159.751 48.9083 162.303 46.6892 164.03 43.9735C166.026 40.8342 168.218 37.539 167.418 33.4137C167.321 32.9157 167.754 32.1011 168.202 31.7651C169.26 30.9729 170.066 31.4141 170.045 32.6965C170.02 34.2783 169.76 35.7989 169.403 37.378C168.268 42.3976 164.918 45.9182 161.55 49.4114C158.438 52.6397 155.364 55.9598 151.47 58.375C149.742 59.4467 148.027 60.5367 146.136 61.5898C145.84 61.515 145.713 61.4688 145.586 61.4227Z" fill="white"/>
<path d="M96.5538 90.8984C96.3255 90.836 96.1835 90.7275 96.0016 90.5625C101.848 87.1636 107.734 83.8212 113.786 80.4905C114.01 80.5843 114.068 80.6663 114.127 80.7483C113.218 81.2923 112.311 81.8396 111.4 82.3798C107.927 84.4397 104.463 86.5161 100.971 88.5467C99.5597 89.3677 98.0857 90.0868 96.5538 90.8984Z" fill="white"/>
<path d="M114.23 80.7496C114.068 80.6662 114.01 80.5842 113.882 80.4679C115.942 79.1446 118.065 77.844 120.204 76.5693C122.659 75.1068 125.127 73.6657 127.593 72.2223C127.702 72.1587 127.853 72.1644 128.077 72.2268C128.175 72.439 128.181 72.5623 128.186 72.6855C125.552 74.2692 122.932 75.8767 120.278 77.4285C118.32 78.5736 116.317 79.646 114.23 80.7496Z" fill="white"/>
<path d="M145.511 61.4752C145.713 61.4687 145.84 61.5148 146.032 61.5865C144.034 63.9111 141.127 65.049 138.51 66.7082C138.281 66.5814 138.185 66.5148 138.089 66.4482C140.058 65.118 142.026 63.7861 143.998 62.459C144.471 62.1403 144.956 61.8378 145.511 61.4752Z" fill="white"/>
<path d="M138.003 66.4932C138.185 66.5148 138.281 66.5814 138.414 66.7276C135.93 68.2174 133.409 69.6275 130.741 70.9965C130.594 70.9552 130.511 70.8622 130.511 70.8622C132.98 69.4208 135.448 67.9795 138.003 66.4932Z" fill="white"/>
<path d="M128.283 72.6571C128.181 72.5624 128.175 72.4391 128.178 72.2236C128.907 71.7432 129.627 71.3551 130.429 70.9147C130.511 70.8624 130.594 70.9554 130.635 71.0026C129.911 71.5761 129.145 72.1023 128.283 72.6571Z" fill="white"/>
<path d="M118.729 344.938C116.025 344.501 113.322 344.06 110.618 343.629C108.956 343.364 107.278 343.181 105.633 342.841C102.308 342.152 98.988 341.433 95.6912 340.627C93.7205 340.145 91.7681 339.555 89.8609 338.872C87.2653 337.941 84.712 336.896 82.1569 335.861C79.4817 334.778 76.8457 333.601 74.1563 332.553C71.3341 331.454 68.5003 330.366 65.6152 329.441C60.8782 327.921 56.122 326.444 51.319 325.141C49.5103 324.651 47.5525 324.647 45.656 324.51C42.5758 324.288 39.4916 324.083 36.4054 323.997C35.548 323.973 34.6831 324.418 33.8115 324.601C32.9873 324.775 32.1536 324.931 31.3158 325.001C31.0944 325.02 30.694 324.728 30.6451 324.518C30.5922 324.292 30.7951 323.942 30.989 323.738C32.0622 322.613 33.5836 322.713 34.9222 322.646C37.9064 322.498 40.9089 322.495 43.8944 322.631C46.5938 322.754 49.3274 322.925 51.9608 323.467C55.2396 324.143 58.4403 325.193 61.6563 326.14C63.2977 326.624 64.9052 327.221 66.5163 327.798C68.7769 328.607 71.0484 329.394 73.2753 330.286C75.7237 331.266 78.1075 332.4 80.5549 333.384C83.3381 334.502 86.1584 335.532 88.9666 336.591C91.6747 337.612 94.3578 338.708 97.1096 339.603C98.9178 340.191 100.822 340.507 102.695 340.894C104.791 341.326 106.903 341.684 109.001 342.108C109.966 342.302 110.909 342.596 111.871 342.809C112.438 342.934 113.021 342.989 113.742 343.194C114.34 343.247 114.792 343.182 115.245 343.117C115.707 343.193 116.17 343.268 116.757 343.446C117.059 343.575 117.236 343.602 117.414 343.628C118.895 343.812 120.377 343.995 122.011 344.304C123.212 344.506 124.265 344.545 125.306 344.678C125.723 344.731 126.113 344.992 126.515 345.158C126.391 345.172 126.268 345.187 126.016 345.121C125.737 345.08 125.585 345.119 125.434 345.159C124.21 345.173 122.986 345.187 121.654 345.069C121.368 344.933 121.19 344.932 121.012 344.93C120.324 344.939 119.637 344.948 118.829 344.948C118.708 344.939 118.729 344.938 118.729 344.938Z" fill="white"/>
<path d="M126.629 345.195C126.113 344.992 125.723 344.731 125.306 344.678C124.265 344.545 123.212 344.506 122.131 344.33C124.771 344.292 127.445 344.409 130.118 344.398C132.702 344.386 135.285 344.241 137.999 344.279C138.124 344.593 138.118 344.781 138.113 344.97C137.971 345.059 137.829 345.227 137.687 345.228C134.039 345.24 130.391 345.235 126.629 345.195Z" fill="white"/>
<path d="M142.978 343.616C143.97 343.668 144.858 343.697 145.746 343.735C146.484 343.766 147.221 343.808 147.986 343.944C145.118 344.279 142.221 344.514 139.324 344.75C139.306 344.584 139.288 344.419 139.27 344.253C140.472 344.034 141.674 343.815 142.978 343.616Z" fill="white"/>
<path d="M115.147 343.093C114.792 343.182 114.34 343.247 113.861 343.215C114.239 343.101 114.644 343.085 115.147 343.093Z" fill="white"/>
<path d="M138.246 344.972C138.118 344.781 138.124 344.593 138.126 344.311C138.488 344.216 138.853 344.216 139.219 344.216C139.254 344.335 139.289 344.454 139.324 344.572C139.009 344.706 138.694 344.84 138.246 344.972Z" fill="white"/>
<path d="M125.471 345.209C125.585 345.12 125.737 345.08 125.923 345.1C125.808 345.192 125.659 345.226 125.471 345.209Z" fill="white"/>
<path d="M121.075 344.967C121.19 344.932 121.368 344.933 121.559 345.004C121.427 345.05 121.282 345.027 121.075 344.967Z" fill="white"/>
<path d="M117.372 343.56C117.236 343.602 117.059 343.575 116.874 343.476C117.02 343.432 117.175 343.462 117.372 343.56Z" fill="white"/>
<path d="M118.687 344.954C118.727 344.937 118.706 344.939 118.698 344.932C118.69 344.926 118.701 345.026 118.701 345.026C118.701 345.026 118.646 344.97 118.687 344.954Z" fill="white"/>
<path d="M22.0689 181.097C22.55 179.553 22.947 177.979 23.5295 176.473C24.7634 173.282 26.0769 170.121 27.3972 166.963C27.7311 166.164 28.1243 165.358 28.6586 164.682C29.0192 164.225 29.675 163.991 30.4196 163.865C26.7852 169.34 24.9467 175.45 22.6465 181.493C22.3792 181.413 22.2241 181.255 22.0689 181.097Z" fill="white"/>
<path d="M21.2399 184.579C21.4016 183.927 21.5634 183.275 21.7252 182.623C21.874 182.653 22.0228 182.684 22.1716 182.714C22.4766 183.501 22.5011 184.249 21.5475 184.806C21.3716 184.659 21.3138 184.61 21.2399 184.579Z" fill="white"/>
<path d="M21.9888 181.145C22.2241 181.255 22.3792 181.414 22.6022 181.588C22.5796 181.944 22.4891 182.284 22.332 182.55C22.1119 182.28 21.9582 182.086 21.8046 181.892C21.8392 181.659 21.874 181.426 21.9888 181.145Z" fill="white"/>
<path d="M21.78 182.003C21.9582 182.086 22.1119 182.28 22.2265 182.586C22.0434 182.504 21.8994 182.309 21.78 182.003Z" fill="white"/>
<path d="M21.225 184.652C21.3139 184.61 21.3716 184.659 21.4354 184.779C21.3752 184.796 21.2926 184.761 21.225 184.652Z" fill="white"/>
</g>
<defs>
<clipPath id="clip0_273_168">
<rect width="289" height="434" fill="white" transform="translate(0.5)"/>
</clipPath>
</defs>
</svg>
