<svg width="20" height="29" viewBox="0 0 20 29" fill="none" xmlns="http://www.w3.org/2000/svg">
<path fill-rule="evenodd" clip-rule="evenodd" d="M10.0001 0.703613C15.3945 0.703613 19.7676 4.78511 19.7676 9.81989C19.7676 11.4806 19.2931 13.0366 18.4605 14.3786C17.9054 15.2732 15.0853 19.8311 10.0001 28.0525C4.91492 19.8311 2.09478 15.2732 1.5397 14.3786C0.707085 13.0366 0.232666 11.4806 0.232666 9.81989C0.232666 4.78511 4.6057 0.703613 10.0001 0.703613ZM10.0001 5.91292C7.68822 5.91292 5.81406 7.66213 5.81406 9.81989C5.81406 11.9777 7.68822 13.7269 10.0001 13.7269C12.312 13.7269 14.1862 11.9777 14.1862 9.81989C14.1862 7.66213 12.312 5.91292 10.0001 5.91292Z" fill="white"/>
</svg>
